<?xml version="1.0" encoding="UTF-8"?>
<svg id="Layer_1" data-name="Layer 1" xmlns="http://www.w3.org/2000/svg" xmlns:xlink="http://www.w3.org/1999/xlink" viewBox="0 0 144.57 124.61">
  <defs>
    <style>
      .cls-1 {
        fill: #c2c3c6;
      }

      .cls-1, .cls-2, .cls-3, .cls-4, .cls-5 {
        fill-rule: evenodd;
      }

      .cls-6, .cls-2 {
        fill: #fff;
      }

      .cls-7 {
        fill: none;
      }

      .cls-3, .cls-8 {
        fill: #17151a;
      }

      .cls-4 {
        fill: #e0dede;
      }

      .cls-9 {
        fill: #d1d3d4;
      }

      .cls-5, .cls-10 {
        fill: #faa427;
      }

      .cls-11 {
        clip-path: url(#clippath);
      }
    </style>
    <clipPath id="clippath">
      <path class="cls-7" d="M50.21,73.47l-5.83,23.45h-8.15l3.93-15.83-7.18,15.83h-5.78l.43-15.47-3.86,15.47h-8.15l5.83-23.45h12.07c0,1.41-.04,3.07-.13,4.99l-.16,5.96,4.87-10.95h12.13ZM55,92.14l-1.19,4.78h-6.76l1.19-4.78h6.76ZM62.33,73.47h9.39c2.54,0,4.46.13,5.76.39,1.3.26,2.23.64,2.8,1.13.56.49.88,1.09.95,1.79.07.7-.08,1.78-.44,3.25l-.51,2.04c-.37,1.5-.88,2.59-1.52,3.27-.64.69-1.64,1.21-3,1.58-1.35.37-3.05.55-5.09.55h-2.5l-2.35,9.44h-9.33l5.83-23.45ZM70.65,77.48l-1.48,5.97c.26,0,.49.01.68.01.86,0,1.49-.14,1.89-.41.4-.28.71-.85.93-1.72l.48-1.93c.2-.8.14-1.32-.19-1.56-.32-.24-1.09-.36-2.3-.36ZM80.39,92.14l-1.19,4.78h-6.76l1.19-4.78h6.76ZM106.5,73.47l-1.17,4.69h-5.54l-4.67,18.76h-9.33l4.67-18.76h-5.52l1.17-4.69h20.38ZM105.9,92.14l-1.19,4.78h-6.76l1.19-4.78h6.76ZM113.23,73.47h6.6c4.4,0,7.35.11,8.85.33,1.5.22,2.63.79,3.39,1.7.75.91.88,2.37.39,4.37-.45,1.83-1.11,3.05-1.96,3.68-.85.63-2.31,1-4.38,1.13,1.77.3,2.91.7,3.42,1.2.51.5.79.96.84,1.38.05.42-.16,1.58-.63,3.47l-1.54,6.18h-8.66l1.94-7.79c.31-1.26.35-2.03.13-2.33-.23-.3-.98-.45-2.27-.45l-2.63,10.57h-9.33l5.83-23.45ZM121.56,77.48l-1.3,5.21c1.05,0,1.81-.09,2.27-.28s.83-.8,1.09-1.83l.32-1.29c.18-.74.1-1.23-.25-1.46s-1.06-.35-2.14-.35Z"/>
    </clipPath>
  </defs>
  <g>
    <path class="cls-2" d="M129.52,51.67c-.11-3.11-.83-6.04-2.15-8.7-2-4.05-5.24-7.32-9.65-9.73-4.2-2.29-9.28-3.7-15.1-4.19-5.77-.48-11.99-.03-18.47,1.35-6.7,1.42-13.39,3.77-19.9,6.98-7.13,3.52-13.55,7.82-19.08,12.79-5.36,4.82-9.58,9.98-12.55,15.35-.02.04-.04.07-.05.11,0,0,0,0,0,0-.15.28-.61,1.29-1.13,2.48h93.66c.66-1.26,2.6-5.5,3.05-7.08,1.02-3.23,1.47-6.38,1.37-9.38Z"/>
    <path class="cls-5" d="M70.46,40.65c26.67-8.48,52.03-3.6,56.64,10.9.93,2.94.95,6.05.15,9.2,1.94-6.18,1.83-12.18-.73-17.37-7.81-15.84-35.51-18.15-61.86-5.15-14.43,7.12-25.47,17.35-31.21,27.75,6.19-10.11,19.76-19.85,37-25.33Z"/>
  </g>
  <path class="cls-2" d="M67.98,71.5l-.13-.03c-.06-.01-.12-.03-.18-.05-2.49-.21-5.02-.39-7.48-.57-2.61-.19-5.32-.39-7.98-.61h-.15s-.14-.05-.14-.05c-1.11-.31-2.26-1.63-3.98-3.95-.11-.01-.23-.02-.34-.02-.08,0-.15,0-.22,0l-.52.04-.44-.27c-.38-.23-.85-.57-1.17-1.14-.61-1.1-.19-2.26.14-2.94-.05-.69-.03-1.54.3-2.41l-3.37-6.1c-.46-.13-.98-.41-1.34-1.06l-.05-.09-.04-.1c-.15-.37-.31-.74-.49-1.13-.18-.4-.37-.82-.54-1.25l-.02-.05s-.02-.05-.02-.07l-.43-.05-.39-.42c-.1-.11-.19-.23-.27-.35-.21-.32-.34-.69-.42-1.14-.03-.15-.04-.3-.05-.44,0-.04,0-.1-.01-.15-.68-1.17-1.34-2.37-1.98-3.53-.57-1.03-1.16-2.1-1.75-3.14-.23-.11-.44-.25-.63-.42-.25-.24-.42-.5-.55-.74h-.09s-.4-.6-.4-.6c-.06-.06-.11-.13-.16-.21-.18-.26-.29-.51-.38-.71-.04-.1-.08-.18-.12-.25-.05-.1-.09-.2-.13-.3l-.3-.58c-.09-.09-.18-.21-.25-.34-.07-.13-.12-.25-.15-.37-.16-.14-.27-.3-.35-.45-.05-.08-.09-.17-.14-.25-.04-.08-.08-.16-.1-.25l-.77-1.46.37-.11c-.42-1.03-.82-2.09-1.2-3.24-.21-.63-.41-1.26-.6-1.88-.09-.3-.19-.59-.28-.88-.36-1.14-.71-2.16-1.04-3.1-.14-.23-.31-.48-.48-.73-.2-.28-.4-.58-.59-.9-.63-1.05-.94-2.04-.99-3.11-.05-1.07-.15-2.17-.24-3.24-.03-.4-.07-.79-.1-1.18h0c-.13-1.65-.27-3.33-.21-5,.03-.83.11-2.61,1.15-3.55.06-.55.13-1.13.24-1.7.16-.82.45-1.85,1.27-2.54.42-.35.93-.53,1.55-.53.16,0,.3.01.42.02.08,0,.16.01.22.01,0,0,0,0,.01,0,.08-.02.26-.08.37-.12.12-.04.24-.08.34-.11.31-.09.73-.2,1.17-.2.33,0,.63.06.91.17,1.02.42,1.55,1.25,1.83,1.91,2.03.48,4.06,1.03,6.02,1.56,1.96.53,3.99,1.08,6,1.56.38-.23.81-.35,1.27-.35.54,0,1.03.16,1.45.31.06.02.13.04.19.06.08.02.15.05.22.07.51.16,1.08.34,1.64.75,1.8.45,3.6.94,5.35,1.42,1.76.48,3.57.97,5.37,1.42.4-.03.79-.05,1.16-.05.99,0,1.87.11,2.64.32.54-.41,1.18-.75,1.92-.75.14,0,.28.01.42.04.86.16,1.54.77,2.03,1.81.31.67.53,1.43.71,2.18,1.8.93,3.28,2.08,4.51,3.5,1.38,1.6,2.33,3.39,2.99,4.78.68,1.42,1.3,2.89,1.9,4.31.24.57.48,1.13.72,1.69.18.41.37.82.56,1.22l.23.41c0-.25,0-.48-.02-.67-.23-1.15.41-2.15,1.58-2.44l.15-.04h.16c.39-.03.78-.04,1.15-.04.36,0,.7,0,1.03-.03l.27-.02.26.07c.54.15.88.48,1.08.69.26.06.56.16.86.33.3-.02.6-.02.89-.03.05,0,.1,0,.15,0,.28-.98.96-1.31,1.39-1.42l.15-.04h.15c.16-.02.32-.03.47-.05.07,0,.14-.02.22-.03.34-.04.72-.09,1.11-.09.86,0,1.52.25,2,.74l.02.02.04.05s.08.07.35.18c.08.03.15.06.23.1.4.15.73.41.95.75.14.05.28.1.43.15.25.09.49.17.74.26.13-.02.27-.03.41-.03.34,0,.68.06,1,.18.89.33,1.58,1.09,1.92,2.14l.03.09.02.09c.25,1.14.33,2.3.37,3.39v.03s0,.06,0,.06c0,.33,0,.67,0,1,.25.06.51.13.77.19.62.15,1.26.31,1.9.49,1.39.41,2.52,1.58,2.87,3l.08.31-.05.32c-.04.25-.02.59,0,.95,0,.14.02.28.03.42.94.62,1.82,1.51,2.34,2.39.67,1.12.86,2.33.58,3.49-.04.62-.01,1.26.02,1.95.03.63.06,1.28.03,1.94.07.14.16.33.22.57l.02.07.02.1c.09.6.19,2.12-.69,3.14-.18.21-.4.39-.64.52v.4c.3.19.62.4.92.67.94.87,1.22,2.04,1.36,2.95.14.92.21,1.95.21,3.06.01,3.62-.67,5.4-2.22,5.79l-.07.02-.1.02c-2.13.29-4.29.69-6.38,1.06-2.98.54-6.05,1.1-9.15,1.4-.88.08-1.72.13-2.56.13h0c-1.52,0-3.05-.14-4.69-.42l-.61-.11-.38-.49c-.21-.27-.47-.69-.67-1.16-.28-.21-.49-.51-.6-.86l-.02-.06-.02-.07c-.04-.17-.06-.33-.06-.47-.82.19-1.62.32-2.29.42-1.5.22-3.01.36-4.31.47-.45.04-.9.08-1.36.12-1.08.09-2.18.18-3.27.3-.8,1.73-2.07,2.91-3.58,3.29l-.27.07-.44-.04ZM51.87,37.99c1.53,4.48,3.09,9.09,4.66,13.66l.76-2.88.27-1.02h2.87s1.13-.02,1.13-.02l.03.14.2-.03c.39-.06.72-.09,1.03-.09.33,0,.66.03.98.1h.06c.08-.22.21-.45.39-.66.14-.16.3-.28.45-.38.01-.04.03-.08.04-.13,0-.28.04-.63.17-.98.29-.75.93-1.21,1.74-1.25.23-.03.46-.05.67-.05.16-1.32.62-2.48,1.34-3.35-.17-.59-.93-3.2-1.13-3.91-.15-.15-.25-.31-.32-.45l-.06-.12-.04-.12c-.12-.35-.26-.7-.39-1.04-.13-.35-.27-.72-.4-1.08l-.02-.06-.03-.1c-.13-.54-.04-1.07.26-1.49-.13-.39-.25-.79-.38-1.18-.16-.51-.33-1.02-.49-1.54-2.58-2.21-7.98-3.43-9.8-3.84-.96-.22-1.92-.41-2.79-.59-.12.72-.29,1.48-.54,2.35-.46,1.61-1.3,3.36-2.39,5.01.58,1.69,1.15,3.38,1.73,5.07ZM38.96,9.58c.14.14.29.28.43.42.35-.05.69-.06,1.01-.06-.23-.06-1.2-.29-1.45-.36Z"/>
  <g>
    <path class="cls-6" d="M119.79,123.2c-.31,0-.59-.16-.76-.42-.17-.26-.19-.58-.06-.86l3.86-8.49s.03-.05.04-.08l.83-1.45h-2.37l-1.88,3.25s-.03.04-.04.07l-5.31,7.59c-.17.24-.45.39-.74.39h-6.62c-.31,0-.59-.16-.76-.42-.17-.26-.19-.58-.06-.86l3.86-8.49s.03-.05.04-.08l.83-1.45h-2.37l-1.88,3.25s-.03.04-.04.07l-5.31,7.59c-.17.24-.45.39-.74.39h-6.62c-.31,0-.59-.16-.76-.42-.17-.26-.19-.58-.06-.86l3.86-8.49s.03-.05.04-.08l.83-1.45h-2.37l-1.88,3.25s-.03.04-.04.07l-5.31,7.59c-.17.24-.45.39-.74.39h-6.62c-.31,0-.59-.16-.76-.42-.17-.26-.19-.58-.06-.86l3.86-8.49s.03-.05.04-.08l.83-1.45h-2.37l-1.88,3.25s-.03.04-.04.07l-5.31,7.59c-.17.24-.45.39-.74.39h-6.62c-.31,0-.59-.16-.76-.42-.17-.26-.19-.58-.06-.86l3.86-8.49s.03-.05.04-.08l.83-1.45h-2.37l-1.88,3.25s-.03.04-.04.07l-5.31,7.59c-.17.24-.45.39-.74.39h-6.62c-.31,0-.59-.16-.76-.42-.17-.26-.19-.58-.06-.86l3.86-8.49s.03-.05.04-.08l.83-1.45h-2.37l-1.88,3.25s-.03.04-.04.07l-5.31,7.59c-.17.24-.45.39-.74.39h-6.62c-.31,0-.59-.16-.76-.42-.17-.26-.19-.58-.06-.86l3.86-8.49s.03-.05.04-.08l.83-1.45h-2.37l-1.88,3.25s-.03.04-.04.07l-5.31,7.59c-.17.24-.45.39-.74.39h-6.62c-.31,0-.59-.16-.76-.42-.17-.26-.19-.58-.06-.86l3.86-8.49s.03-.05.04-.08l.83-1.45h-2.37l-1.88,3.25s-.03.04-.04.07l-5.31,7.59c-.17.24-.45.39-.74.39h-6.62c-.31,0-.59-.16-.76-.42-.17-.26-.19-.58-.06-.86l3.86-8.49s.03-.05.04-.08l.83-1.45h-2.37l-1.88,3.25s-.03.04-.04.07l-5.31,7.59c-.17.24-.45.39-.74.39H2.32c-.31,0-.59-.16-.76-.42-.17-.26-.19-.58-.06-.86l3.86-8.49s.03-.05.04-.08l2.16-3.74v-10.35c0-.07,0-.14.03-.21l7.95-32.62c.1-.41.46-.69.88-.69h125.83c.5,0,.9.41.9.9v30.53c0,.17-.05.33-.13.47l-8,13.17-2.52,4.36s-.03.04-.04.07l-5.31,7.59c-.17.24-.45.39-.74.39h-6.62Z"/>
    <polygon class="cls-10" points="142.24 66.63 142.24 66.63 142.24 66.63 142.24 66.63 142.24 66.63 16.42 66.63 8.47 99.26 8.47 109.85 6.18 113.81 2.32 122.29 8.95 122.29 14.25 114.71 16.39 111 20.85 111 19.24 113.81 15.37 122.29 22 122.29 27.3 114.71 29.44 111 33.91 111 32.29 113.81 28.43 122.29 35.05 122.29 40.36 114.71 42.49 111 46.96 111 45.34 113.81 41.48 122.29 48.1 122.29 53.41 114.71 55.55 111 60.01 111 58.39 113.81 54.53 122.29 61.15 122.29 66.46 114.71 68.6 111 73.06 111 71.44 113.81 67.58 122.29 74.2 122.29 79.51 114.71 81.65 111 86.11 111 84.5 113.81 80.63 122.29 87.26 122.29 92.56 114.71 94.7 111 99.17 111 97.55 113.81 93.69 122.29 100.31 122.29 105.62 114.71 107.75 111 112.22 111 110.6 113.81 106.74 122.29 113.36 122.29 118.67 114.71 120.81 111 125.27 111 123.65 113.81 119.79 122.29 126.41 122.29 131.72 114.71 134.24 110.34 134.24 110.34 142.24 97.16 142.24 66.63"/>
    <polygon class="cls-8" points="17.13 67.54 9.37 99.37 9.37 110.1 9.37 110.1 6.99 114.22 3.73 121.39 8.47 121.39 13.49 114.22 15.87 110.1 22.42 110.1 20.04 114.22 16.78 121.39 21.53 121.39 26.54 114.22 28.92 110.1 35.47 110.1 33.09 114.22 29.83 121.39 34.58 121.39 39.59 114.22 41.97 110.1 48.53 110.1 46.15 114.22 42.88 121.39 47.63 121.39 52.64 114.22 55.02 110.1 61.58 110.1 59.2 114.22 55.94 121.39 60.68 121.39 65.7 114.22 68.08 110.1 74.63 110.1 72.25 114.22 68.99 121.39 73.73 121.39 78.75 114.22 81.13 110.1 87.68 110.1 85.3 114.22 82.04 121.39 86.79 121.39 91.8 114.22 94.18 110.1 100.73 110.1 98.35 114.22 95.09 121.39 99.84 121.39 104.85 114.22 107.23 110.1 113.79 110.1 111.41 114.22 108.14 121.39 112.89 121.39 117.9 114.22 120.28 110.1 126.84 110.1 124.46 114.22 121.2 121.39 125.94 121.39 130.96 114.22 133.34 110.1 133.34 110.1 133.34 99.37 141.09 67.54 17.13 67.54"/>
  </g>
  <path class="cls-6" d="M20.35,101.78l-.04,5.24h-1.66l.02-3.53-.69,3.53h-1.18l-.67-3.45-.03,3.45h-1.66l.04-5.24h2.45c.07.31.14.69.22,1.11l.26,1.33.45-2.44h2.47ZM25.42,104.85c0,.53-.02.9-.06,1.12-.04.22-.15.42-.33.6-.18.18-.43.32-.74.42-.31.1-.67.15-1.08.15s-.74-.05-1.05-.14c-.31-.09-.56-.23-.75-.41-.19-.18-.3-.38-.33-.6-.03-.22-.05-.59-.05-1.13v-.9c.01-.53.03-.9.07-1.12.04-.22.15-.42.33-.6.18-.18.43-.32.74-.42.31-.1.67-.15,1.08-.15.39,0,.74.05,1.05.14.31.09.56.23.75.41.19.18.3.38.33.6.03.22.05.59.05,1.13v.9ZM23.54,103.13c0-.24-.02-.4-.05-.47-.04-.07-.11-.1-.23-.1-.1,0-.18.03-.23.08-.05.05-.08.22-.08.49l-.02,2.44c0,.3.01.49.05.56.03.07.11.11.24.11s.21-.04.25-.12c.04-.08.06-.28.06-.59l.02-2.41ZM26.15,101.78h1.89c.6,0,1.05.03,1.36.1s.55.2.74.41c.19.2.28.53.28.98,0,.31-.07.52-.2.64-.13.12-.4.21-.79.28.44.07.73.19.89.35.15.16.23.42.23.76v.49c0,.35-.06.62-.18.79-.11.17-.29.29-.54.35-.25.06-.75.09-1.51.09h-2.19l.04-5.24ZM28.03,104.66v1.46c.26,0,.43-.04.5-.09s.11-.19.11-.4v-.49c0-.22-.03-.36-.09-.41-.07-.05-.24-.07-.52-.08ZM28.04,102.68v1.16c.07,0,.14,0,.18,0,.19,0,.3-.03.36-.1.05-.07.08-.25.08-.56,0-.16-.02-.28-.06-.34-.04-.07-.1-.11-.16-.12-.07-.02-.2-.03-.39-.03ZM33.14,101.78l-.04,5.24h-1.9l.04-5.24h1.9ZM35.8,101.78l-.03,4.19h1.15v1.05h-3.06l.04-5.24h1.9ZM37.41,101.78h3.16v1.05h-1.27v.99s1.18,0,1.18,0v1h-1.19v1.15s1.38,0,1.38,0v1.05h-3.3l.04-5.24ZM42.87,101.78h1.91c.52,0,.91.03,1.19.09.28.06.49.14.62.25s.23.24.28.4c.05.16.07.4.07.73v.46c0,.33-.06.58-.15.73-.1.15-.27.27-.53.35-.26.08-.59.12-1.01.12h-.51l-.02,2.11h-1.9l.04-5.24ZM44.76,102.68v1.33s.09,0,.13,0c.17,0,.3-.03.36-.09.07-.06.1-.19.1-.38v-.43c0-.18-.03-.3-.11-.35-.08-.05-.24-.08-.49-.08ZM49.4,101.78l-.03,4.19h1.15v1.05h-3.06l.04-5.24h1.9ZM54.52,101.78l1.05,5.24h-1.94l-.1-.94h-.68l-.12.94h-1.96l1.01-5.24h2.74ZM53.49,105.15c-.09-.59-.18-1.33-.27-2.2-.2,1-.33,1.74-.38,2.2h.65ZM60.16,101.78l-.04,5.24h-1.66l-.97-2.38-.02,2.38h-1.59l.04-5.24h1.59l1.05,2.36.02-2.36h1.59ZM64.74,101.78v1.05h-1.13l-.03,4.19h-1.9l.03-4.19h-1.12v-1.05h4.15ZM71.59,105.03v.88s-.52.23-.52.23l.63.87h-1.68l-.22-.29c-.57.27-1.1.4-1.61.4s-.93-.13-1.22-.38c-.28-.25-.42-.56-.42-.91,0-.28.09-.51.26-.67.17-.16.42-.29.76-.39-.48-.25-.72-.58-.71-1.01,0-.36.18-.66.52-.88.34-.22.82-.33,1.42-.33.54,0,.97.11,1.27.33.31.22.46.49.46.83,0,.35-.19.67-.57.94l.64.83,1-.46ZM69.18,106.14l-.58-.71c-.23.15-.34.31-.34.48,0,.12.03.22.1.28s.17.09.31.09c.15,0,.32-.05.51-.14ZM68.78,104.11c.21-.19.31-.38.31-.55,0-.08-.03-.14-.09-.21-.06-.06-.14-.09-.25-.09-.1,0-.17.02-.23.07-.05.05-.08.12-.08.22,0,.2.11.39.33.56ZM76.08,101.78v1.05h-1.13l-.03,4.19h-1.9l.03-4.19h-1.12v-1.05h4.15ZM76.52,101.78h1.34c.89,0,1.5.02,1.82.07.32.05.57.18.77.38.2.2.3.53.29.97,0,.41-.08.68-.22.82-.14.14-.42.22-.84.25.37.07.63.16.75.27.13.11.21.22.24.31.03.09.04.35.04.77v1.38h-1.77v-1.74c.01-.28-.01-.45-.08-.52-.06-.07-.22-.1-.48-.1l-.02,2.36h-1.9l.04-5.24ZM78.41,102.68v1.16c.2,0,.35-.02.44-.06.09-.04.13-.18.13-.41v-.29c0-.17-.04-.27-.12-.33s-.23-.08-.45-.08ZM85.79,101.78l-.03,3.5c0,.4-.02.68-.06.84-.04.16-.14.33-.32.49-.18.17-.41.3-.7.38-.29.09-.63.13-1.03.13-.44,0-.82-.05-1.15-.16-.33-.1-.58-.24-.74-.4s-.26-.34-.29-.53-.04-.57-.04-1.16l.02-3.1h1.9l-.03,3.93c0,.23.01.37.05.44.03.06.1.1.21.1.12,0,.2-.04.23-.11.04-.07.05-.24.06-.5l.03-3.86h1.9ZM90.94,104.06h-1.9v-.91c0-.26-.01-.43-.05-.5-.04-.07-.13-.1-.27-.1-.16,0-.26.04-.3.12-.04.08-.06.25-.07.52l-.02,2.43c0,.25.02.42.06.5s.14.12.28.12.23-.04.28-.12c.04-.08.07-.26.07-.55v-.66h1.9v.2c0,.54-.06.93-.17,1.15-.11.23-.35.43-.71.6-.37.17-.82.26-1.35.26s-1.01-.07-1.37-.22c-.36-.14-.6-.34-.71-.6s-.17-.64-.17-1.15v-1.53c.01-.38.03-.66.07-.85.04-.19.15-.37.33-.54.18-.17.43-.31.75-.41.32-.1.68-.15,1.09-.15.56,0,1.02.08,1.38.23.36.16.6.35.71.58.11.23.17.59.16,1.08v.5ZM96.16,101.78l-1.1,2.36,1.17,2.87h-1.96l-.75-2.24-.02,2.24h-1.9l.04-5.24h1.9v2.03s.84-2.03.84-2.03h1.78ZM98.21,101.78h1.34c.89,0,1.5.02,1.82.07.32.05.57.18.77.38.2.2.3.53.29.97,0,.41-.08.68-.22.82-.14.14-.42.22-.84.25.37.07.63.16.75.27.13.11.21.22.24.31.03.09.04.35.04.77v1.38h-1.77v-1.74c.01-.28-.01-.45-.08-.52-.06-.07-.22-.1-.48-.1l-.02,2.36h-1.9l.04-5.24ZM100.1,102.68v1.16c.2,0,.35-.02.44-.06.09-.04.13-.18.13-.41v-.29c0-.17-.04-.27-.12-.33s-.23-.08-.45-.08ZM103.18,101.78h3.16v1.05h-1.27v.99s1.18,0,1.18,0v1h-1.19v1.15s1.38,0,1.38,0v1.05h-3.3l.04-5.24ZM107.01,101.78h1.91c.52,0,.91.03,1.19.09.28.06.49.14.62.25.14.11.23.24.28.4.05.16.07.4.07.73v.46c0,.33-.06.58-.15.73-.1.15-.27.27-.53.35-.26.08-.59.12-1.01.12h-.51l-.02,2.11h-1.9l.04-5.24ZM108.9,102.68v1.33s.09,0,.13,0c.17,0,.3-.03.36-.09.07-.06.1-.19.1-.38v-.43c0-.18-.03-.3-.11-.35-.08-.05-.24-.08-.49-.08ZM114.69,101.78l1.05,5.24h-1.94l-.1-.94h-.68l-.12.94h-1.96l1.01-5.24h2.74ZM113.66,105.15c-.09-.59-.18-1.33-.27-2.2-.2,1-.33,1.74-.38,2.2h.65ZM117.99,101.78l-.04,5.24h-1.9l.04-5.24h1.9ZM118.76,101.78h1.34c.89,0,1.5.02,1.82.07.32.05.57.18.77.38s.3.53.29.97c0,.41-.08.68-.22.82-.14.14-.42.22-.84.25.37.07.63.16.75.27.13.11.21.22.24.31.03.09.04.35.04.77v1.38h-1.77v-1.74c.01-.28-.01-.45-.08-.52-.06-.07-.22-.1-.48-.1l-.02,2.36h-1.9l.04-5.24ZM120.65,102.68v1.16c.2,0,.35-.02.44-.06.09-.04.13-.18.13-.41v-.29c0-.17-.04-.27-.12-.33s-.23-.08-.45-.08ZM127.73,103.37h-1.76v-.39c0-.18-.02-.3-.06-.35s-.12-.07-.22-.07c-.11,0-.2.03-.26.1-.06.07-.09.17-.09.3,0,.17.03.31.1.39.06.09.24.2.53.32.84.36,1.37.65,1.59.89.22.23.32.6.32,1.12,0,.37-.07.65-.19.82-.12.18-.36.32-.71.44-.35.12-.76.18-1.22.18-.51,0-.94-.07-1.3-.21-.36-.14-.59-.31-.7-.53-.11-.21-.16-.52-.16-.91v-.34h1.76v.64c0,.2.02.32.07.38s.14.08.26.08.22-.04.28-.11c.06-.07.09-.18.09-.32,0-.31-.05-.51-.17-.6-.12-.09-.41-.25-.88-.48-.47-.22-.78-.39-.93-.49-.15-.1-.28-.24-.38-.42-.1-.18-.15-.41-.15-.69,0-.4.08-.69.22-.88.14-.19.38-.33.69-.43.32-.1.7-.16,1.15-.16.49,0,.91.06,1.26.17.35.11.57.26.69.43.11.17.17.47.16.88v.21Z"/>
  <g class="cls-11">
    <rect class="cls-9" x="13.2" y="71.54" width="124.43" height="27.83"/>
    <path class="cls-6" d="M51.25,74.51l-5.83,23.45h-8.15l3.93-15.83-7.18,15.83h-5.78l.43-15.47-3.86,15.47h-8.15l5.83-23.45h12.07c0,1.41-.04,3.07-.13,4.99l-.16,5.96,4.87-10.95h12.13ZM56.04,93.18l-1.19,4.78h-6.76l1.19-4.78h6.76ZM63.36,74.51h9.39c2.54,0,4.46.13,5.76.39,1.3.26,2.23.64,2.8,1.13.56.49.88,1.09.95,1.79.07.7-.08,1.78-.44,3.25l-.51,2.04c-.37,1.5-.88,2.59-1.52,3.27-.64.69-1.64,1.21-3,1.58-1.35.37-3.05.55-5.09.55h-2.5l-2.35,9.44h-9.33l5.83-23.45ZM71.69,78.52l-1.48,5.97c.26,0,.49.01.68.01.86,0,1.49-.14,1.89-.41.4-.28.71-.85.93-1.72l.48-1.93c.2-.8.14-1.32-.19-1.56-.32-.24-1.09-.36-2.3-.36ZM81.42,93.18l-1.19,4.78h-6.76l1.19-4.78h6.76ZM107.53,74.51l-1.17,4.69h-5.54l-4.67,18.76h-9.33l4.67-18.76h-5.52l1.17-4.69h20.38ZM106.94,93.18l-1.19,4.78h-6.76l1.19-4.78h6.76ZM114.26,74.51h6.6c4.4,0,7.35.11,8.85.33,1.5.22,2.63.79,3.39,1.7.75.91.88,2.37.39,4.37-.45,1.83-1.11,3.05-1.96,3.68-.85.63-2.31,1-4.38,1.13,1.77.3,2.91.7,3.42,1.2.51.5.79.96.84,1.38.05.42-.16,1.58-.63,3.47l-1.54,6.18h-8.66l1.94-7.79c.31-1.26.35-2.03.13-2.33-.23-.3-.98-.45-2.27-.45l-2.63,10.57h-9.33l5.83-23.45ZM122.59,78.52l-1.3,5.21c1.05,0,1.81-.09,2.27-.28s.83-.8,1.09-1.83l.32-1.29c.18-.74.1-1.23-.25-1.46s-1.06-.35-2.14-.35Z"/>
  </g>
  <g>
    <path class="cls-3" d="M84.67,65.4s-.02,0-.03,0c-.13-.02-.24-.09-.3-.18-1.07.35-2.23.56-3.34.72-1.4.21-2.82.34-4.23.47-1.84.16-3.7.29-5.54.52-.47,1.36-1.43,2.79-2.9,3.16h-.03s-.04,0-.04,0c-5.31-.45-10.63-.78-15.93-1.23h-.02s-.02,0-.02,0c-.98-.28-2.86-2.92-3.57-3.88-.44-.12-1-.16-1.45-.13h-.07s-.06-.03-.06-.03c-.27-.16-.53-.36-.69-.64-.35-.62.04-1.44.35-2.01-.13-.97-.08-1.88.44-2.72-1.35-2.44-2.7-4.88-4.04-7.31-.41,0-.78-.05-1.01-.47h0s0-.03,0-.03c-.32-.81-.71-1.58-1.03-2.38h0c-.05-.15-.11-.33-.09-.48,0-.09.03-.12.06-.2-.02-.1-.12-.19-.19-.3-.26,0-.51.05-.78.02h-.08s-.05-.07-.05-.07c-.04-.05-.08-.1-.12-.15-.12-.19-.18-.4-.22-.62-.04-.24-.04-.63-.11-.85-1.41-2.43-2.71-4.92-4.12-7.35-.22-.02-.43-.1-.6-.26-.35-.33-.41-.82-.63-1.21-.14.04-.27.03-.36-.1-.18-.28-.27-.56-.43-.85-.08-.15,0-.24.08-.33-.13-.24-.27-.47-.41-.7-.12-.06-.27-.05-.36-.2-.1-.18-.02-.33-.05-.45-.04-.07-.08-.14-.11-.2-.13,0-.25,0-.33-.15-.04-.08-.08-.16-.13-.24-.02-.05-.03-.1-.02-.15.01-.07.04-.1.08-.13-.06-.15-.12-.34-.11-.48-.59-1.34-1.1-2.69-1.56-4.09-.3-.91-.59-1.83-.88-2.75-.35-1.09-.71-2.18-1.1-3.26-.34-.6-.79-1.15-1.15-1.75-.46-.77-.76-1.56-.8-2.47-.07-1.49-.22-2.99-.35-4.48-.13-1.58-.27-3.25-.2-4.83.03-.76.12-2.4.96-2.75.04-.02.07-.03.11-.04.09-.75.16-1.52.3-2.26.12-.59.31-1.34.8-1.74.44-.37,1.02-.13,1.51-.19.27-.04.65-.19.92-.27.35-.1.82-.22,1.17-.07.75.31,1.1,1.06,1.3,1.81,4.51,1.02,8.92,2.42,13.43,3.45.61-.76,1.31-.44,2.14-.17.62.2,1.16.33,1.66.78,3.76.93,7.46,2.04,11.22,2.97,1.33-.12,2.96-.1,4.21.45.46-.44,1.15-1.04,1.8-.92.52.1.83.6,1.04,1.04.36.76.58,1.71.76,2.54,1.8.85,3.35,1.94,4.66,3.46,1.16,1.34,2.03,2.89,2.79,4.48.94,1.94,1.75,3.97,2.6,5.95.85,1.97,1.94,3.81,3,5.68.12-.93.27-1.85.37-2.78,0-.35.1-.7.11-1.04-.03-.55.04-1.13-.04-1.68-.1-.43.11-.71.53-.82h.02s.02,0,.02,0c.73-.04,1.45-.02,2.18-.06h.04s.04,0,.04,0c.35.1.51.45.79.64.33.06.88.17,1.07.48.93-.09,1.87-.05,2.79-.14.02-.48-.07-1.26.45-1.39h.02s.02,0,.02,0c.18,0,.37-.03.55-.05.6-.07,1.67-.28,2.14.21h0s0,0,0,0c.34.39.7.48,1.14.67.29.09.36.29.36.54.73.26,1.47.51,2.2.78.31-.12.68-.11.99,0,.56.21.88.71,1.06,1.25h0s0,.02,0,.02c.37,1.7.34,3.5.42,5.23,1.2.35,2.44.59,3.64.94.94.27,1.69,1.07,1.93,2.02v.04s0,.04,0,.04c-.12.75.09,1.58,0,2.36.96.46,2.02,1.42,2.54,2.3.47.79.65,1.66.4,2.57-.13,1.47.13,2.96.01,4.44.1.2.21.32.28.58h0s0,.02,0,.02c.14.98,0,2.46-1.31,2.44-4.69.05-9.37-.16-14.06-.11-.1.14-.25.39-.34.58.15-.03.28-.07.44-.13.38-.13.67-.19,1.07-.2h0s0,0,0,0c2.79.13,5.58.05,8.37.18h.02s.02,0,.02,0c1.6.39,2.93,1.19,4.4,1.89h0s0,0,0,0c.45.27.98.53,1.36.88.61.56.81,1.35.93,2.15.14.94.19,1.92.2,2.87,0,.91-.02,4.17-1.18,4.46h-.01s-.01,0-.01,0c-5.18.71-10.27,1.95-15.48,2.45-2.38.23-4.54.13-6.88-.28h-.08s-.05-.08-.05-.08c-.26-.33-.55-.89-.66-1.35-.06,0-.13,0-.19-.02-.11-.04-.17-.13-.2-.24h0s0-.02,0-.02c-.04-.16-.02-.27,0-.43.01-.06.02-.11,0-.17-.01-.05-.04-.14-.06-.22-.24-.06-.35-.23-.28-.51,0-.02,0-.04.02-.05.03-.06.06-.1.1-.11,0-.04,0-.09,0-.13h0ZM44.14,13.79c-.12-.28-.24-.55-.36-.82-.21-.02-.43-.04-.64-.07-.84-.09-1.79-.2-2.65-.15.33.38.66.77.98,1.15.87.1,1.79-.04,2.67-.11h0ZM45.65,13.3c-.26-.05-.5-.1-.75-.13.05.15.11.29.16.44.21-.06.42-.13.64-.18-.01-.04-.03-.08-.04-.12h0ZM65.79,47.83c.11-.29.2-.59.32-.88,0-.49,0-1.12.67-1.12.62-.09,1.25-.03,1.87-.1-.05-1.53.33-3.28,1.56-4.28-.49-1.71-.99-3.42-1.49-5.14-.15-.04-.22-.12-.31-.28v-.02s-.01-.02-.01-.02c-.25-.71-.54-1.41-.79-2.13h0s0-.02,0-.02c-.04-.15-.02-.3.09-.42.07-.07.13-.09.19-.12,0-.17.05-.3.15-.42-.39-1.23-.79-2.45-1.17-3.68-2.49-2.37-7.41-3.67-10.69-4.41-2.11-.48-4.23-.87-6.35-1.26-.92-.17-1.85-.34-2.77-.53-.62-.13-1.25-.26-1.87-.41,3.68,10.68,7.28,21.4,10.96,32.08.5-.36,1.17-.96,1.44-1.4.35-1.32.7-2.64,1.05-3.95l.04-.16h.17c.46,0,.92,0,1.38,0h.18s.04.17.04.17c.26,1.3.14,2.67-.07,3.97.14,0,.29,0,.43,0,.36-1.29.78-2.57,1.05-3.88l.03-.15.15-.02c.52-.08.97-.11,1.49,0l.14.03.03.14c.22,1.27.1,2.63-.06,3.92.15,0,.29.01.44.01.53-1.3.68-2.71,1.05-4.05-.04-.37-.09-.9.17-1.19.13-.15.33-.23.52-.28h0ZM66.96,53.16c-.01.08-.03.15-.04.23.18,0,.36.01.53.02.02-.07.04-.15.05-.23-.18,0-.37-.01-.55-.02h0ZM70.87,53.48c.02-.08.04-.15.06-.23-.21,0-.43.01-.64,0-.01.08-.02.15-.04.23.21,0,.41,0,.62,0h0ZM73.66,53.92c1.17.04,2.34.09,3.51.13.04-.06.1-.11.2-.13h.02s.02,0,.02,0c.24,0,.49,0,.73,0,0,0,0,0,0,0-.68-.02-1.36-.04-2.04-.05-.11,0-.21-.04-.27-.13-.07-.09-.08-.19-.07-.29-.68.01-1.36.03-2.03-.03-.02.18-.03.35-.06.52h0ZM72.16,40.05c.93.01,1.86-.01,2.79,0-1.52-3.2-3.41-6.37-5.89-8.94.13.46.26.91.4,1.37.11.05.19.11.27.2.35-.02.56.14.65.52.17.71.39,1.41.53,2.12.02.11.02.19,0,.3,0,.06-.01.09,0,.15.36,1.45.87,2.85,1.24,4.3h0ZM45.14,51.29c.89,1.76,1.78,3.52,2.68,5.28.08-.39.16-.77.23-1.16-.9-1.47-1.84-2.93-2.74-4.4-.05.09-.1.19-.16.28h0ZM32.91,32.99c.04.1.07.2.12.28.03.02.05.04.08.06-.02-.11-.03-.22.01-.3,0-.02.01-.03.02-.05-.08.01-.15.01-.23.02h0ZM33.98,34.79s.05.1.07.15c.04.14.04.3,0,.44.04.08.07.15.05.25.03.07.07.14.1.2.11,0,.22,0,.34-.02-.15-.34-.31-.68-.45-1.03-.04,0-.07,0-.11,0h0ZM35.99,38.58c-.13-.27-.27-.54-.4-.81-.1,0-.18-.07-.22-.19-.06-.12-.11-.23-.16-.35-.05,0-.1.01-.15,0-.02.02-.04.05-.06.07.2.36.35.75.54,1.12.17,0,.32.07.45.18h0ZM34.64,7.08c1.43,1.49,2.82,3.03,4.35,4.42.66-.25,1.53-.18,2.22-.2h0c.14,0,.27.05.36.15.09.09.11.19.15.28.49,0,.99,0,1.47.04.47.04.92.14,1.38.27.65.07,1.37.13,2,.31.64.18,1.24.5,1.81.82.54.16.85.45,1.28.76,4.26.24,8.53.49,12.79.73.04-.08.08-.16.12-.23-4.18-1-8.37-1.95-12.55-2.95-.48-.06-.95-.09-1.43-.1-.33,0-.67,0-1-.06-.46-.08-.84-.26-1.22-.52h-.02s-.02-.03-.02-.03c-.21-.23-.25-.56-.32-.85-3.78-.99-7.58-1.87-11.36-2.86h0ZM66.29,12.73c.66.6,1.31,1.21,1.97,1.8.02,0,.04,0,.07,0-.1-.75-.24-1.9-.74-2.36-.05-.05-.11-.1-.17-.13-.03-.02-.06-.03-.1-.03-.27-.03-.73.44-1.03.73Z"/>
    <path class="cls-3" d="M48.85,64.8c.87,1.15,2.63,3.61,3.5,3.86,5.59.48,10.34.75,15.93,1.23,1.29-.32,2.28-1.59,2.79-3.15,4.16-.54,10.1-.64,13.41-1.79-.04.32.36.22.41.28-.01.14-.04.21.02.51,0,.03-.16-.02-.15,0-.04.14-.04.25.22.28.05.07.09.25.12.36.06.23-.06.37,0,.61.06.19.2.06.38.14.07.53.48,1.2.64,1.4,2.21.38,4.23.5,6.83.28,5.29-.54,10.3-1.74,15.47-2.45,1.14-.29,1.17-4.74.83-7.09-.29-1.98-.98-2.15-2.19-2.88-1.55-.73-2.75-1.49-4.36-1.87-2.67-.13-5.7-.05-8.37-.18-.9.02-1.02.29-1.79.37-.03-.21.21-.66.49-1.06,5.28-.06,8.89.17,14.17.11,1.18.02,1.21-1.41,1.1-2.19-.07-.27-.2-.39-.29-.59.13-1.45-.13-3.07,0-4.52.69-2.41-2.01-4.29-2.96-4.7.12-.74-.11-1.78.01-2.53-.2-.81-.85-1.6-1.78-1.86-1.13-.34-2.66-.65-3.79-.99-.09-1.69-.05-3.65-.42-5.35-.44-1.33-1.43-1.29-1.84-1.09-.86-.31-1.57-.55-2.43-.86.02-.18.06-.4-.21-.48-.4-.18-.84-.29-1.23-.74-.44-.46-1.56-.14-2.52-.09-.38.1-.24.99-.3,1.38-.96.11-2.18.07-3.14.18-.02-.27-.45-.41-1-.51-.33-.2-.49-.56-.77-.64-.75.04-1.44.02-2.18.06-.29.07-.45.23-.37.57.08.55.01,1.18.04,1.72,0,.35-.1.71-.11,1.06-.12,1.15-.33,2.3-.45,3.45-1.17-2.09-2.38-4.07-3.33-6.27-3.03-7-4.31-11.14-10.05-13.82-.86-4.02-1.67-4.21-3.36-2.55-1.33-.65-3.17-.59-4.27-.49-3.96-.98-7.35-2.01-11.31-2.99-.49-.45-1.06-.58-1.63-.77-.85-.28-1.44-.57-1.98.21-4.56-1.03-9.13-2.48-13.69-3.51-.25-.98-.62-1.55-1.21-1.79-.52-.22-1.53.3-1.98.36-.44.06-1.05-.15-1.4.14-.76.63-.82,2.35-1.04,4.02-1.91.12-.7,7.64-.5,11.9.09,1.87,1.33,3.06,1.93,4.14,1.54,4.3,1.96,6.52,3.57,10.15-.03.13.11.48.17.61.02.04-.17.04-.14.09.04.08.08.16.13.23.04.08.25,0,.29.08.05.09.1.18.15.27.06.1,0,.35.05.45.04.07.29.09.33.16.16.28.33.57.49.85.03.05-.16.18-.13.23.16.3.23.54.42.83.06.09.25-.08.31.02.38.57.36,1.47,1.24,1.48,1.42,2.43,2.78,5.04,4.19,7.47.13.37,0,1.14.4,1.56.34.04.55-.05.89-.01.05.16.22.27.26.46.05.2-.17.11.03.65.36.91.67,1.47,1.03,2.38.22.39.65.36.95.36,1.39,2.51,2.78,5.02,4.17,7.53-.58.87-.6,1.81-.47,2.76-.84,1.5-.51,1.96.23,2.42.48-.04,1.12,0,1.59.16h0ZM41.36,14.11c-.44-.51-.87-1.02-1.31-1.54,1.12-.15,2.53.06,3.88.19.14.38.37.83.51,1.22-1,.06-2.07.26-3.09.13h0ZM44.92,13.87c-.11-.32-.23-.63-.34-.95.59.04.88.12,1.23.19.06.15.11.3.17.45-.4.1-.73.2-1.05.3h0ZM44.83,22.3c5.13,1.38,17.7,2.45,22.2,6.8.41,1.28.82,2.58,1.23,3.86-.12.11-.22.22-.17.45-.08.13-.37.1-.3.39.26.71.54,1.41.79,2.13.15.26.21.12.3.23.49,1.69,1.07,3.68,1.55,5.37-1.02.76-1.71,2.3-1.58,4.39-.73.11-1.35.02-2.08.13-.5,0-.47.48-.47.95-.14.34-.23.68-.37,1.02-.62.15-.73.31-.63,1.31-.4,1.41-.53,2.87-1.13,4.25-.23,0-.59-.02-.82-.01.16-1.24.33-2.74.09-4.09-.49-.11-.91-.08-1.41,0-.29,1.41-.74,2.72-1.1,4.05-.28,0-.57,0-.85.01.21-1.26.4-2.76.12-4.15-.46,0-.92,0-1.38,0-.35,1.33-.71,2.66-1.06,3.99-.32.54-1.22,1.32-1.75,1.65-3.81-11.04-7.38-21.68-11.19-32.73h0ZM66.77,52.93c.34.02.67.03,1.01.03-.05.22-.08.44-.16.66-.31,0-.63-.02-.94-.03.02-.19.09-.42.09-.66h0ZM70.1,53.03c.36.03.75.02,1.1,0-.04.21-.1.46-.16.68-.35.01-.7,0-1.06.01.07-.22.09-.45.12-.68h0ZM73.39,54.13c.09-.32.1-.65.13-.97.8.1,1.64.06,2.45.05.04.14-.09.42.13.42.75.02,1.54.04,2.29.06-.05.12-.05.3.03.43-.36,0-.65,0-1.01.01-.1.02-.09.1-.1.14-1.31-.05-2.62-.1-3.93-.15h0ZM71.99,40.26c-.36-1.44-.93-3.02-1.28-4.46-.05-.21.03-.25,0-.45-.13-.66-.36-1.42-.53-2.11-.07-.3-.21-.39-.53-.34-.08-.09-.15-.18-.37-.27-.22-.76-.44-1.51-.66-2.27,2.79,2.68,4.92,6.17,6.67,9.9-1.13-.02-2.17.02-3.3,0h0ZM44.89,51.28c.14-.2.26-.44.4-.7.97,1.58,2.02,3.21,2.98,4.79-.11.63-.25,1.24-.36,1.87-1.01-1.99-2.01-3.97-3.02-5.96h0ZM32.57,32.8c.32-.04.6.04.9-.19-.06.15-.1.36-.15.51-.12.19.41.95.62,1.47.1,0,.2,0,.29,0,.22.53.42.94.64,1.47-.29-.07-.53.05-.82-.01-.05-.11-.14-.27-.19-.38.04-.13-.02-.18-.06-.25.15-.32-.02-.63-.18-.58-.09-.13-.11-.29-.19-.42.08-.36,0-.64-.26-.54-.06-.16-.15-.37-.29-.42-.14-.17-.18-.47-.32-.64h0ZM34.73,37.26c.1-.11.19-.22.29-.33.13.12.12.08.31.04.09.18.15.34.24.52.03.11.11.04.15.04,1.13,2.28,2.24,4.56,3.37,6.84-.94-1.7-1.88-3.4-2.82-5.09-.24-.43-.51-.73-.83-.64-.26-.45-.43-.93-.69-1.37h0ZM33.95,6.67c4.13,1.09,8.11,1.99,12.24,3.08.05.17.12.68.31.88,1.21.79,1.58.38,3.58.64,4.19,1,8.61,2.01,12.8,3.01-.04.21-.21.4-.25.61-4.3-.24-8.71-.5-13.02-.74-.42-.31-.74-.61-1.29-.78-1.61-.9-1.94-.91-3.77-1.12-1.17-.33-1.65-.29-2.93-.31-.12-.16-.11-.43-.39-.43-.84.01-1.66-.05-2.26.23-1.72-1.56-3.33-3.38-5-5.07h0ZM65.97,12.73c.45-.39,1.07-1.18,1.56-.88.74.46.85,1.56,1.05,2.9-.13,0-.27,0-.4,0-.72-.65-1.49-1.37-2.2-2.01Z"/>
    <path class="cls-3" d="M79.19,62.61c-.08,0-.16,0-.25-.05h0s0-.01,0-.01c-.06-.04-.1-.11-.13-.18v-.02s-.01-.02-.01-.02c-.02-.09-.02-.18-.01-.27.01-.1.05-.23.02-.32-.01-.05-.04-.15-.06-.23-.09-.02-.17-.05-.23-.14-.03-.05-.06-.1-.06-.16l-.06-.4.19.03s0-.09,0-.14c-.11-.01-.2-.03-.29-.12-.02-.02-.04-.04-.05-.07-1.08.35-2.23.56-3.35.72-1.4.21-2.81.34-4.22.47-1.85.16-.03.06-1.88.3-.47,1.35-2.74,3.89-4.19,4.27h-.05s-.05,0-.05,0c-5.3-.45-6.95,1.99-12.25,1.54h-.03s-.03-.01-.03-.01c-.98-.3-2.74-1.9-3.45-2.85-.44-.13-.98-.16-1.43-.13h-.1s-.08-.04-.08-.04c-.25-.16-.5-.35-.65-.61-.02-.04-.05-.09-.06-.14-.22-.6.12-1.33.42-1.86-.13-.97-.08-1.88.44-2.73-1.35-2.45-2.7-4.89-4.06-7.34-.02,0-.04,0-.06,0-.39,0-.73-.08-.94-.45v-.02s-.02-.02-.02-.02c-.32-.8-.71-1.57-1.02-2.38h0s0,0,0,0c-.09-.24-.14-.4-.03-.66,0,0,0,0,0,0-.01-.05-.04-.09-.07-.13-.05-.07-.1-.12-.13-.19-.14,0-.28.02-.42.03-.1,0-.21,0-.31,0h-.12s-.08-.11-.08-.11c-.17-.2-.25-.46-.29-.72-.02-.15-.03-.3-.05-.45-.01-.13-.02-.28-.06-.41-1.41-2.44-2.72-4.93-4.13-7.36-.21-.02-.4-.09-.56-.23-.26-.22-.39-.55-.51-.87-.05-.13-.1-.26-.17-.38-.03,0-.05.02-.08.02l-.19.02-.1-.16c-.16-.25-.25-.52-.39-.78l-.09-.17.11-.15s.02-.03.03-.04c-.13-.24-.28-.48-.41-.72,0,0,0,0,0,0-.11-.04-.19-.04-.28-.12l-.05-.04-.03-.06c-.07-.13-.03-.25-.03-.39,0-.01,0-.03,0-.05-.04-.07-.08-.13-.11-.2-.05,0-.09,0-.15-.01l-.13-.03-.06-.11s-.04-.08-.07-.12l-.17-.32.18-.05c-.06-.15-.12-.34-.11-.48-.59-1.34-1.11-2.7-1.56-4.09-.3-.91-.59-1.83-.88-2.75-.35-1.09-.71-2.18-1.1-3.26-.34-.61-.79-1.15-1.15-1.75-.46-.77-.76-1.56-.8-2.46-.07-1.5-.22-2.99-.35-4.48-.13-1.6-.27-3.22-.2-4.83.03-.77.13-2.39.95-2.73.04-.02.08-.03.12-.04.09-.76.16-1.52.3-2.27.11-.59.31-1.33.79-1.73.26-.21.63-.21.95-.2.17,0,.38.03.54.01.12-.02.24-.05.35-.09.16-.05.31-.1.47-.15.37-.12.88-.26,1.26-.11.75.31,1.09,1.07,1.29,1.81,4.52,1.02,8.94,2.43,13.46,3.45.18-.22.4-.4.69-.45.45-.09,1,.14,1.42.28.62.2,1.16.33,1.66.77,3.76.93,7.47,2.04,11.23,2.97,1.34-.11,2.97-.11,4.22.45.19-.18.38-.35.59-.51.33-.25.77-.5,1.2-.42.51.09.82.6,1.02,1.03.37.78.58,1.7.76,2.55,1.8.85,3.36,1.94,4.67,3.46,1.16,1.34,2.03,2.88,2.79,4.47.94,1.95,1.74,3.96,2.6,5.95.86,1.99,1.97,3.86,3.04,5.75.12-.95.28-1.9.38-2.86,0-.35.1-.7.11-1.05-.03-.56.04-1.13-.04-1.68-.1-.41.1-.68.5-.79h.03s.03,0,.03,0c.72-.04,1.43-.02,2.15-.06h.06s.06.02.06.02c.01,0,.02,0,.03.01.17.07.29.2.41.33.1.1.2.21.32.29.33.06.89.17,1.07.48.94-.09,1.89-.05,2.83-.15,0-.03,0-.05,0-.07,0-.12,0-.24,0-.36,0-.28.03-.72.29-.9.03-.02.07-.04.11-.05h.04s.04-.01.04-.01c.18-.01.36-.03.54-.05.6-.07,1.66-.28,2.12.2h0s0,.01,0,.01c.33.39.7.47,1.14.68.13.04.24.12.3.25.05.1.05.19.05.29.74.27,1.48.52,2.22.78.31-.12.68-.12.98,0,.55.2.87.7,1.05,1.23v.02s0,.02,0,.02c.38,1.72.34,3.49.42,5.24,1.21.35,2.45.6,3.66.95.92.27,1.66,1.05,1.9,1.97l.02.06v.06c-.06.37-.04.75-.01,1.12.03.41.06.83.02,1.24.96.46,2.02,1.41,2.54,2.3.09.14.16.29.23.44.29.67.37,1.39.17,2.1-.12,1.48.14,2.96.01,4.45.03.07.08.13.11.19.07.12.13.24.17.38v.02s0,.02,0,.02c.04.29.06.58.04.87-.05.8-.41,1.54-1.32,1.53l-.07,2.26h.01s.01.01.01.01c.46.27.96.51,1.35.88.61.56.81,1.35.92,2.13.14.94.19,1.91.19,2.86,0,.69-.03,1.41-.11,2.1-.08.65-.27,2.13-1.04,2.34h-.02s-.02,0-.02,0c-5.56-.74-22.98-27.7-21.59-2.22-2.33.23-4.53.12-6.84-.28l-.12-.02-.07-.1c-.25-.33-.53-.87-.63-1.31h0ZM43.8,12.94c-.57-.06-1.13-.13-1.7-.18-.54-.05-1.11-.08-1.66-.04.34.4.68.8,1.02,1.2.9.1,1.82-.04,2.71-.12-.12-.29-.26-.57-.37-.87h0ZM45.04,13.64c.23-.07.46-.14.69-.2-.02-.05-.04-.11-.06-.16-.27-.06-.54-.11-.81-.14.06.17.12.33.18.5h0ZM67.89,33.33c-.01-.17.04-.3.16-.42-.39-1.24-.79-2.47-1.18-3.7-2.5-2.38-7.4-3.67-10.7-4.42-2.1-.48-4.23-.87-6.35-1.26-.92-.17-1.85-.34-2.77-.53-.64-.13-1.28-.26-1.91-.42,3.69,10.71,7.3,21.45,10.99,32.16.51-.36,1.19-.97,1.48-1.43.34-1.29.69-2.59,1.03-3.88l.06-.22h.23c.4,0,.81,0,1.21,0h.25s.05.24.05.24c.24,1.28.11,2.62-.1,3.9.16,0,.32,0,.48,0,.35-1.28.77-2.53,1.04-3.83l.04-.2.2-.03c.45-.07.87-.09,1.33,0l.21.04.03.21c.21,1.26.09,2.59-.07,3.86.16,0,.32.01.48.01.54-1.3.68-2.73,1.06-4.08-.04-.36-.09-.89.16-1.18.13-.15.33-.22.52-.27.12-.29.2-.6.32-.89,0-.3-.02-.7.2-.93.12-.12.28-.17.44-.17.63-.09,1.27-.03,1.89-.1-.02-.54.01-1.1.11-1.63.19-1.02.63-2,1.45-2.66-.5-1.72-1-3.44-1.49-5.16-.14-.04-.22-.12-.3-.26v-.02s-.02-.02-.02-.02c-.25-.71-.53-1.4-.79-2.11v-.02s0-.02,0-.02c-.03-.13-.01-.25.07-.36.06-.07.12-.11.21-.15,0,0,0,0,0,0h0ZM66.94,53.13c-.01.09-.03.19-.05.28.19,0,.39.01.58.02.03-.09.05-.18.07-.28-.2,0-.4-.01-.6-.02h0ZM70.27,53.23c-.01.09-.03.19-.05.28.22,0,.45,0,.67,0,.02-.09.05-.19.07-.28-.23.01-.46.01-.69,0h0ZM75.78,53.4c-.69.01-1.39.03-2.08-.03-.02.19-.03.38-.07.58,1.18.04,2.36.09,3.54.13l.05-.14h.2c.25,0,.5,0,.74-.01,0-.02,0-.04,0-.05-.69-.02-1.38-.04-2.07-.06-.06,0-.11-.01-.17-.04l-.06-.03-.04-.06c-.06-.09-.06-.19-.05-.28h0ZM74.98,40.07c-1.54-3.25-3.45-6.46-5.98-9.05.14.49.29.99.43,1.48.11.06.2.12.28.21.34-.03.55.13.64.5.17.71.39,1.4.53,2.12.02.08.02.17,0,.25,0,.07-.02.13,0,.2.36,1.45.88,2.86,1.25,4.31.95.01,1.9-.02,2.85,0h0ZM45.12,51.29c.9,1.79,1.81,3.57,2.71,5.36.08-.41.17-.83.24-1.24-.91-1.49-1.85-2.95-2.77-4.44-.06.11-.12.22-.19.32h0ZM33.15,33.03s.02-.06.03-.09c-.02,0-.04,0-.06.01-.08.01-.15.02-.23.02.02.06.05.13.08.2.02.04.03.08.06.12.05.03.1.07.14.12-.04-.12-.06-.25-.02-.35v-.02s.01,0,.01,0h0ZM33.7,34.52s.01.04.02.06c0,.02.01.04.02.06,0,0,0,0,0,0l-.02-.05s-.02-.04-.03-.07h0ZM33.93,34.77c.04.05.07.11.09.18.04.14.04.29,0,.43.01.02.02.04.03.06.02.06.03.13.02.19.04.08.08.15.11.23.12,0,.26-.01.39-.02-.16-.36-.32-.71-.47-1.07-.03,0-.06,0-.09,0h-.08ZM35.05,37.18s-.06.07-.09.1c.2.37.36.77.56,1.14.21,0,.39.11.54.26-.15-.3-.3-.61-.45-.91l-.11.04-.12-.25c-.06-.12-.11-.24-.16-.37-.02,0-.04,0-.06,0h-.06s-.05-.02-.05-.02h0ZM46.03,9.91c-3.81-1-7.65-1.89-11.46-2.88,1.46,1.51,2.87,3.08,4.42,4.49.66-.26,1.53-.19,2.22-.2h0c.1,0,.2.03.28.1.12.09.16.21.22.33.49,0,.99,0,1.48.04.47.04.92.14,1.38.27.67.08,1.35.13,2,.31.64.18,1.23.5,1.81.82.54.16.85.45,1.28.77,4.27.25,8.54.49,12.81.73.03-.07.07-.14.11-.22,0-.02.02-.04.03-.06-4.19-1-8.39-1.95-12.58-2.96-.48-.06-.96-.09-1.44-.1-.33,0-.67,0-1-.06-.45-.07-.82-.26-1.2-.5l-.04-.02-.03-.03c-.2-.23-.23-.55-.31-.84h0ZM66.25,12.73c.67.61,1.33,1.22,2,1.83.03,0,.07,0,.1,0-.1-.76-.24-1.93-.75-2.41-.05-.05-.11-.1-.18-.14-.03-.02-.07-.03-.11-.04-.3-.02-.77.46-1.06.75Z"/>
    <path class="cls-3" d="M85.19,66.95s.01.03.02.03c.01,0,.21,0,.3.04l.06.02v.06c.06.4.35.98.6,1.31,2.3.4,4.41.5,6.76.27,5.21-.5,10.29-1.74,15.46-2.45.88-.24.93-3.45.93-4.14,0-.93-.06-1.9-.19-2.82-.11-.71-.28-1.45-.83-1.96-.36-.33-.88-.59-1.3-.84-1.44-.68-2.76-1.48-4.32-1.86-2.78-.13-5.57-.05-8.36-.18-.37,0-.63.06-.97.18-.28.09-.51.16-.8.19h-.1s-.02-.09-.02-.09c-.05-.31.33-.89.51-1.14l.03-.04h.05c4.73-.06,9.44.16,14.17.11,1.07.02,1.1-1.3.99-2.06-.06-.23-.19-.36-.28-.56v-.03s0-.03,0-.03c.13-1.5-.14-3.02,0-4.52h0s0-.02,0-.02c.19-.65.12-1.3-.15-1.92-.06-.14-.13-.28-.21-.41-.52-.87-1.6-1.83-2.54-2.24l-.08-.03v-.08c.14-.81-.1-1.69.02-2.5-.22-.83-.88-1.52-1.7-1.76-1.25-.37-2.54-.62-3.79-.99l-.07-.02v-.08c-.1-1.76-.05-3.6-.42-5.33-.15-.44-.41-.88-.87-1.05-.25-.09-.58-.09-.83.02l-.04.02-.04-.02c-.81-.29-1.62-.57-2.43-.86l-.08-.03v-.08c.03-.15.07-.31-.12-.37h0s0,0,0,0c-.5-.23-.87-.31-1.26-.76-.35-.36-1.42-.16-1.87-.11-.18.02-.37.04-.56.05-.01,0-.02,0-.03.02-.21.14-.14,1.01-.18,1.27v.08s-.09,0-.09,0c-1.04.12-2.1.06-3.14.18h-.11s0-.1,0-.1c-.01-.25-.73-.38-.91-.41h-.02s-.02-.01-.02-.01c-.16-.1-.28-.23-.41-.36-.08-.09-.19-.21-.31-.25,0,0-.01,0-.02,0-.72.04-1.43.02-2.15.06-.24.06-.34.17-.28.43h0s0,.01,0,.01c.08.57.01,1.15.04,1.73h0c0,.36-.1.71-.11,1.07h0s0,0,0,0c-.12,1.15-.33,2.3-.45,3.45l-.04.34-.17-.29c-1.16-2.07-2.39-4.1-3.34-6.28-.85-1.98-1.66-4-2.6-5.94-.75-1.56-1.61-3.09-2.75-4.41-1.31-1.51-2.85-2.58-4.65-3.42l-.05-.02v-.05c-.19-.82-.41-1.81-.77-2.57-.15-.33-.41-.79-.81-.86-.55-.1-1.27.6-1.62.94l-.05.05-.07-.03c-1.21-.59-2.9-.6-4.22-.48h-.02s-.02,0-.02,0c-3.78-.94-7.52-2.05-11.31-2.99h-.03s-.02-.03-.02-.03c-.46-.43-1.01-.56-1.59-.74-.35-.12-.9-.34-1.27-.27-.26.05-.44.23-.58.44l-.04.06-.07-.02c-4.6-1.03-9.09-2.47-13.69-3.5l-.06-.02-.02-.06c-.17-.67-.46-1.43-1.14-1.72-.48-.2-1.41.3-1.92.37-.38.05-1.05-.13-1.34.12-.41.34-.59,1.05-.69,1.56-.15.78-.21,1.6-.32,2.39v.09s-.1,0-.1,0c-.06,0-.13.02-.18.04-.66.28-.74,1.88-.76,2.47-.06,1.57.07,3.22.2,4.79.12,1.49.28,2.99.35,4.49.04.85.32,1.59.76,2.32.36.61.82,1.16,1.16,1.77h0s0,.02,0,.02c.39,1.09.76,2.19,1.11,3.29.29.92.58,1.83.88,2.75.46,1.4.98,2.76,1.57,4.11v.03s0,.04,0,.04c-.02.1.12.45.17.54.01.02.02.05.01.08-.01.07-.06.09-.11.1.02.04.04.08.07.12.09.02.23-.04.3.1.05.09.1.18.15.27.07.13,0,.38.04.44.08.06.27.05.34.17.16.28.33.56.49.85.06.12-.05.19-.11.27.13.25.22.52.38.76.09-.01.23-.11.32.04.35.53.36,1.43,1.15,1.43h.06s.03.05.03.05c1.44,2.47,2.76,5,4.19,7.47h0s0,.02,0,.02c.09.25.08.64.13.92.03.2.09.42.23.58.29.02.56-.05.85-.02h.07s.02.07.02.07c.05.16.21.25.26.47.02.07.01.13-.01.19-.07.17-.03.26.04.44.32.8.71,1.57,1.02,2.37.18.32.54.29.86.3h.06s.03.06.03.06c1.39,2.51,2.78,5.02,4.17,7.53l.03.06-.04.05c-.55.83-.58,1.73-.45,2.68v.04s-.01.03-.01.03c-.25.45-.67,1.24-.38,1.76.12.21.34.37.55.5.5-.03,1.12.02,1.6.16h.03s.02.04.02.04c.61.8,2.56,3.55,3.44,3.81,5.3.45,10.61.77,15.9,1.22,1.39-.36,2.27-1.79,2.69-3.07l.02-.06h.07c1.88-.25,3.79-.38,5.69-.55,1.4-.12,2.81-.26,4.21-.46,1.16-.17,2.39-.39,3.5-.78l.17-.06-.02.17c-.03.21.28.07.39.2l.03.03v.04c-.03.19-.03.27.01.47,0,.03,0,.05,0,.07-.04.07-.1.07-.16.06,0,.04.05.05.14.06h.05s.03.05.03.05c.06.09.1.27.13.38.06.24-.05.4,0,.61h0ZM44.04,12.72c.16.41.36.81.51,1.22l.05.14h-.15c-1.03.08-2.08.27-3.11.13h-.04s-.03-.04-.03-.04c-.44-.51-.87-1.02-1.31-1.54l-.13-.15.2-.03c1.22-.16,2.67.07,3.9.19h.07s.02.07.02.07h0ZM44.82,13.91c-.11-.32-.23-.63-.34-.95l-.06-.16h.16c.45.04.81.12,1.25.2h.06s.02.07.02.07c.06.15.11.3.17.45l.04.11-.12.03c-.35.09-.7.19-1.05.3l-.1.03-.04-.1h0ZM67.9,33.77c.25.71.53,1.4.79,2.11.12.21.15.05.28.2l.02.02v.02c.52,1.79,1.04,3.58,1.56,5.37l.02.07-.06.04c-1.28.96-1.63,2.79-1.54,4.3v.1s-.09.01-.09.01c-.69.11-1.39.02-2.08.13h0s0,0,0,0c-.09,0-.18.01-.24.08-.14.15-.12.57-.12.76v.04c-.15.33-.24.68-.38,1.02l-.02.05h-.05c-.15.05-.36.1-.46.22-.18.2-.11.74-.09.99v.02s0,.02,0,.02c-.4,1.42-.54,2.89-1.13,4.26l-.03.06h-.07c-.27,0-.55-.02-.82-.01h-.13s.02-.12.02-.12c.17-1.29.31-2.69.1-3.99-.42-.08-.8-.06-1.22,0-.29,1.35-.72,2.65-1.08,3.98l-.02.08h-.08c-.28,0-.57.01-.85.01h-.13s.02-.13.02-.13c.22-1.3.38-2.71.13-4.02-.4,0-.81,0-1.21,0-.35,1.3-.69,2.6-1.04,3.91h0s0,.03,0,.03c-.33.56-1.23,1.34-1.79,1.68l-.11.07-.04-.13c-3.76-10.9-7.43-21.83-11.19-32.73l-.07-.19.2.05c.74.2,1.49.36,2.24.51.92.19,1.84.35,2.77.52,2.13.39,4.25.78,6.36,1.26,3.37.76,8.35,2.08,10.88,4.53l.02.02v.03c.42,1.29.83,2.57,1.24,3.86l.02.07-.05.05c-.12.1-.17.18-.13.34v.04s-.01.04-.01.04c-.11.17-.33.11-.29.31h0ZM66.77,52.83c.33.01.67.03,1,.03h.14s-.03.13-.03.13c-.05.23-.08.46-.17.68l-.03.07h-.08c-.31-.01-.62-.02-.94-.03h-.11s.01-.12.01-.12c.02-.22.09-.43.09-.65v-.11s.11,0,.11,0h0ZM70.11,52.92c.36.03.72.02,1.08,0h.14s-.03.13-.03.13c-.05.23-.1.46-.17.68l-.02.07h-.08c-.35.02-.7,0-1.06.01h-.15s.04-.14.04-.14c.06-.22.09-.44.12-.66v-.1s.11,0,.11,0h0ZM77.43,54.23s0,.04,0,.05v.1s-.11,0-.11,0c-1.31-.05-2.62-.1-3.93-.15h-.14s.04-.14.04-.14c.08-.31.1-.63.13-.95v-.11s.12.01.12.01c.8.1,1.62.06,2.43.05h.09s.02.08.02.08c.02.08-.01.31,0,.34,0,0,.02,0,.03,0,.76.02,1.52.04,2.29.06h.16s-.06.15-.06.15c-.04.1-.04.24.02.33l.11.16h-.19c-.33.01-.66,0-1,.02h0ZM75.28,40.37c-1.1-.02-2.2.02-3.3,0h-.08s-.02-.08-.02-.08c-.37-1.5-.91-2.96-1.28-4.46-.05-.19.02-.3,0-.46-.14-.71-.36-1.4-.53-2.1-.06-.25-.15-.3-.4-.26h-.06s-.04-.04-.04-.04c-.11-.13-.17-.18-.33-.24l-.05-.02v-.05c-.23-.76-.45-1.51-.67-2.27l-.11-.39.29.28c2.88,2.77,5.01,6.34,6.69,9.93l.07.16h-.17ZM44.81,51.21c.15-.21.27-.46.39-.68l.09-.17.1.16c.98,1.61,2,3.19,2.98,4.79l.02.03v.04c-.11.63-.26,1.24-.37,1.87l-.05.32-.15-.29c-1-1.99-2.02-3.97-3.02-5.96l-.03-.06.04-.05h0ZM34.01,34.47c.07,0,.15,0,.22,0h.07s.03.07.03.07c.21.49.44.98.64,1.47l.08.19-.2-.05c-.27-.06-.53.05-.82-.01h-.05s-.02-.06-.02-.06c-.06-.13-.13-.25-.19-.38l-.02-.04v-.04c.04-.08,0-.1-.04-.16l-.03-.05.02-.05c.05-.1.06-.22.03-.32,0-.03-.04-.11-.08-.11l-.08.02-.04-.07c-.09-.14-.11-.29-.19-.42l-.02-.04v-.04c.03-.08.1-.49-.1-.41l-.1.04-.04-.1c-.03-.09-.12-.32-.22-.36h-.03s-.02-.03-.02-.03c-.15-.19-.18-.47-.32-.64l-.12-.15.19-.02c.31-.04.58.03.85-.17l.3-.23-.14.36c-.06.16-.09.34-.15.51h0s0,.02,0,.02c-.04.11.3.72.36.83.08.15.16.31.23.47h0ZM35.66,37.43s.03-.01.06-.01h.07s.03.06.03.06c1.12,2.28,2.24,4.56,3.37,6.84l.05.09-.19.1-.05-.09c-.94-1.7-1.88-3.4-2.82-5.09-.13-.23-.39-.67-.71-.59l-.08.02-.04-.07c-.26-.44-.43-.93-.69-1.37l-.04-.07.05-.06c.1-.11.19-.22.29-.33l.07-.08.08.08s.05.05.06.05c.03,0,.12-.03.15-.04l.08-.02.04.08c.08.17.15.34.23.51h0ZM46.56,10.56c.34.22.68.39,1.09.46.31.05.64.05.95.05.5,0,.99.04,1.48.1h0s0,0,0,0c4.26,1.02,8.53,1.99,12.8,3.01l.1.02-.02.1c-.04.23-.21.4-.25.61l-.02.09h-.1c-4.34-.25-8.68-.5-13.02-.75h-.03s-.03-.02-.03-.02c-.43-.31-.73-.61-1.26-.76h-.01s-.01-.01-.01-.01c-.56-.31-1.14-.63-1.76-.8-.62-.17-1.33-.23-1.97-.3h-.02c-.44-.13-.88-.23-1.34-.27-.52-.05-1.05-.03-1.57-.04h-.05l-.03-.04c-.11-.14-.11-.38-.3-.39-.67,0-1.61-.06-2.22.22l-.07.03-.05-.05c-1.76-1.6-3.34-3.39-5.01-5.08l-.28-.28.38.1c4.07,1.07,8.17,2.01,12.24,3.08l.06.02.02.06c.07.22.12.65.27.83h0ZM65.9,12.65c.39-.34,1.1-1.25,1.68-.89.08.05.16.11.23.17.64.6.75,1.97.87,2.8l.02.13h-.13c-.13,0-.27,0-.4,0h-.04s-.03-.03-.03-.03c-.74-.67-1.46-1.35-2.2-2.01l-.09-.08.09-.08Z"/>
    <path class="cls-5" d="M64.06,14.4c-.12-.2-.74.06-.86-.14.71-.3,1.96-.71,2.79-1.36.7.64,1.4,1.29,2.11,1.93l.03.03h.04c.13,0,.27,0,.4,0h.09c.31.33.35.19.65.52-1.83-.48-3.41-.5-5.24-.97Z"/>
    <path class="cls-3" d="M49.98,66.12c.81,1.05,1.83,2.26,2.4,2.43,5.3.45,10.61.77,15.9,1.22.46-.12.86-.35,1.21-.66l.04-2.33-19.55-.66Z"/>
    <path class="cls-3" d="M27.31,21.16h0s0,.01,0,.01h0s0,.02,0,.02h0s0,.02,0,.02h0s0,.02,0,.02h0s0,.01,0,.01h0s0,.02,0,.02h0s0,.02,0,.02h0s0,.01,0,.01v.02s.01,0,.01,0h0s0,.02,0,.02h0s0,.02,0,.02h0s0,.01,0,.01h0s0,.02,0,.02h0s0,0,0,0h0s0,.02,0,.02h0s0,0,0,0h0s0,.02,0,.02h0s0,.01,0,.01h0s0,.02,0,.02h0s0,.02,0,.02h0s0,.01,0,.01h0s0,.02,0,.02h0s0,0,0,0h0s0,.02,0,.02h0s0,0,0,0h0s0,.02,0,.02h0s0,.01,0,.01h0s0,.02,0,.02h0s0,.02,0,.02h0s0,.01,0,.01h0s0,.02,0,.02h0s0,0,0,0h0s0,.02,0,.02h0s0,0,0,0h0s0,.02,0,.02h0s0,.02,0,.02h0s0,.02,0,.02h0s0,0,0,0h0s0,.02,0,.02h0c.36.62.82,1.17,1.16,1.78h0s0,.02,0,.02c.39,1.09.76,2.19,1.11,3.29.29.92.58,1.83.88,2.75.46,1.4.98,2.76,1.57,4.11v.03s0,.04,0,.04c-.02.1.12.45.17.54.01.02.02.05.01.08-.01.07-.06.09-.11.1.02.04.04.08.07.12.09.02.23-.04.3.1.05.09.1.18.15.27.07.13,0,.38.04.44.08.06.27.05.34.17.16.28.33.56.49.85.06.12-.05.19-.11.27.13.25.22.52.38.76.09-.01.23-.11.32.04.35.53.36,1.43,1.15,1.43h.06s.03.05.03.05c1.44,2.47,2.76,5,4.19,7.47h0s0,.02,0,.02c.09.25.08.64.13.92h0s0,0,0,0h0s0,0,0,0h0s0,0,0,0h0s0,0,0,0h0s0,0,0,0h0s0,0,0,0h0s0,0,0,0h0s0,0,0,0h0s0,0,0,0h0s0,0,0,0h0s0,0,0,0h0s0,0,0,0h0s0,0,0,0h0s0,0,0,0h0s0,0,0,0h0s0,0,0,0h0s0,0,0,0h0s0,0,0,0h0s0,0,0,0h0s0,0,0,0h0s0,0,0,0h0s0,0,0,0h0s0,0,0,0h0s0,0,0,0h0s0,0,0,0h0s0,0,0,0h0s0,0,0,0h0s0,0,0,0h0s0,.01,0,.01h0s0,0,0,0h0s0,0,0,0h0s0,0,0,0l2.21-.05c.9,1.2,1.8,2.37,2.7,3.54h0s0,0,0,0c.13-.21.24-.45.35-.67l.1.16c.98,1.61,2,3.19,2.98,4.79l.02.03,2.62,3.84c.33,1.35.85,1.24,1.59,1.31.51.02.88.04,1.39.06.65,0,1.29,0,1.94,0-.15-1.03-.3-2.05-.44-3.08-.12-.97-.24-1.94-.35-2.9-.13-.6-.27-1.19-.4-1.79-.22-.18-.44-.36-.66-.54-.24.12-.48.24-.72.36-.12.92-.23,1.85-.35,2.77-6.8-11.69-13.59-23.37-20.39-35.06l-5.3.83h0ZM34.01,34.47c.07,0,.15,0,.22,0h.07s.03.07.03.07c.21.49.44.98.64,1.47l.08.19-.2-.05c-.27-.06-.53.05-.82-.01h-.05s-.02-.06-.02-.06c-.06-.13-.13-.25-.19-.38l-.02-.04v-.04c.04-.08,0-.1-.04-.16l-.03-.05.02-.05c.05-.1.06-.22.03-.32,0-.03-.04-.11-.08-.11l-.08.02-.04-.07c-.09-.14-.11-.29-.19-.42l-.02-.04v-.04c.03-.08.1-.49-.1-.41l-.1.04-.04-.1c-.03-.09-.12-.32-.22-.36h-.03s-.02-.03-.02-.03c-.15-.19-.18-.47-.32-.64l-.12-.15.19-.02c.31-.04.58.03.85-.17l.3-.23-.14.36c-.06.16-.09.34-.15.51h0s0,.02,0,.02c-.04.11.3.72.36.83.08.15.16.31.23.47h0ZM35.66,37.43s.03-.01.06-.01h.07s.03.06.03.06c1.12,2.28,2.24,4.56,3.37,6.84l.05.09-.19.1-.05-.09c-.94-1.7-1.88-3.4-2.82-5.09-.13-.23-.39-.67-.71-.59l-.08.02-.04-.07c-.26-.44-.43-.93-.69-1.37l-.04-.07.05-.06c.1-.11.19-.22.29-.33l.07-.08.08.08s.05.05.06.05c.03,0,.12-.03.15-.04l.08-.02.04.08c.08.17.15.34.23.51Z"/>
    <path class="cls-3" d="M54.28,58.29c2.78.04.37,2,1.88,2-.36-.88-.62-1.84.02-2.67.21-.27.5-.49.86-.48.46.02.83.4,1.1.74l.03.04.02.05c.12.38.13.7.11,1.09,0,.1,0,.2-.01.3v.02s0,.02,0,.02c-.09.49-.12.98-.15,1.48-.03.45-.06.9-.13,1.35l6.39.1,3.27-5.27-8.39-.45-5.54.45.55,1.22Z"/>
    <path class="cls-5" d="M108.17,53.1c.2-.47.18-1.11.12-1.54-.07-.27-.2-.39-.29-.59.13-1.45-.13-3.07,0-4.52.67-2.33-1.84-4.17-2.86-4.65-4.14-.84-8.19-1.7-12.24-2-3.06,2.03-8.41,4.29-11.48,6.31-.63,2.1.06,3.9.39,6.07,3.54.15,7.53,0,11.05.12.1,0,.25-1.23.35-1.23.1.02.19,1.2.3,1.22,4.88.66,9.38.57,14.22.84.16-.01.32-.02.46-.03Z"/>
    <path class="cls-3" d="M108.02,51.02s-.02-.03-.02-.05c.13-1.45-.13-3.07,0-4.52,0-.01,0-.03.01-.04l-8.02-1.21.08,5.21,7.95.61Z"/>
    <path class="cls-5" d="M82.82,53.02c.33.1.68.08.89.14-.29,0-.59.01-.89.02v-.15Z"/>
    <path class="cls-3" d="M66.05,47.75c.09-.25.17-.51.27-.76,0-.47-.03-.96.47-.95.71-.11,1.32-.02,2.03-.12l6.47.1c.02.06.04.13.06.19.03.11-.02.14-.03.21.14.58.3,1.13.47,1.65l-.8-.35-8.94.03Z"/>
    <path class="cls-5" d="M76.84,46.05l5.11,4.8c-.03.38.04.84,0,1.22.02.08.04.16.07.23l-17.34-.26c.23-.9.37-1.82.63-2.72-.1-.99.01-1.16.63-1.31h0s9.86.15,9.86.15c.4,1.19.89,2.13,1.51,2.47.05-.05.04-.16.08-.21-.67-.86-1.16-2.75-1.7-4.39l1.14.02Z"/>
    <path class="cls-5" d="M70.05,40.14l1.93.06v.06c.57,0,1.11,0,1.65,0l1.59.05c.6.33,1.2.66,1.79.98-.12,1.52-.24,3.04-.36,4.57h.01s-.49-.25-.49-.25h-.71s.02-.07.02-.11c-.22-.23-.21-.27-.18-.47-.06.02-.16-.02-.23,0-.01.12.03.25.01.38.1.05.14.12.16.21l-6.4.05c-.06-1.96.61-3.41,1.59-4.14-.13-.44-.26-.91-.4-1.38Z"/>
    <path class="cls-3" d="M46.42,21.73c-.16-.06-.31-.13-.47-.19-.62-.27-1.24-.55-1.85-.85-.91-.45-1.83-.94-2.69-1.48-.31-.19-.63-.4-.92-.63-.16-.13-.39-.33-.46-.53-.19-.35-.29-.8-.32-1.2-.05-.63.06-1.61.75-1.87.97-.37,1.92-.68,2.93-.89h.01s.01,0,.01,0c.34-.03.68-.07,1.02-.09h.17s.31-.11.31-.11c.07-.02.14-.04.21-.07h.02s.03-.01.03-.01c.07,0,.14-.01.21-.02h.12s.09.07.09.07c1.89,1.76,3.84,3.45,5.72,5.2,6.53,2.12,13.07,4.25,19.6,6.37l.08.03.05.06c3.76,4.67,7.51,9.33,11.27,14l.06.08v.1c-.09,3.53-.18,7.05-.27,10.58v.1s-.06.07-.06.07c-.18.22-.46.43-.56.7,0,.38-.03.76-.02,1.15v.28s-6.7-.1-6.7-.1l.02-.29c.02-.37.13-.73.29-1.07l-.16-.36c-.11-.24-.12-.53-.13-.79,0-.18-.01-.43-.09-.6l-.05-.11.04-.11c.31-.76.4-1.7.49-2.52.05-.44.1-.87.18-1.3-.05-.26-.12-.52-.17-.78-.05-.23-.08-.46-.01-.69.1-.33.39-.53.68-.69.03-.03.05-.06.07-.09.08-.13.1-.31.11-.46.01-.21,0-.43,0-.65-.1-.22-.2-.44-.3-.66-.1-.22-.2-.44-.28-.66l-.18-.38c-1.68-3.59-3.79-7.14-6.67-9.9l-.71-.68c-.3-.18-.56-.35-.85-.56h-.01s-.01-.02-.01-.02c-1.26-1.22-3.01-2.07-4.63-2.7-2-.78-4.1-1.33-6.2-1.81-2.11-.48-4.23-.87-6.36-1.26-.92-.17-1.85-.34-2.77-.52-.64-.13-1.28-.26-1.92-.43l-1.45-.37,1.48-.17c.41-.05.82-.08,1.22-.12Z"/>
    <path class="cls-3" d="M45.23,22.12c.77-.09,1.68-.16,2.39-.25-2.24-.68-7.16-3.27-7.33-3.94-.43-.78-.46-2.43.28-2.71,1.04-.4,1.91-.68,2.89-.88.34-.03.67-.07,1.01-.09l.37-.02v-.04s.17-.06.17-.06c.07-.02.14-.04.21-.06.07,0,.14-.02.21-.02,1.97,1.84,3.79,3.41,5.77,5.25,6.55,2.13,13.1,4.26,19.66,6.39,3.76,4.67,7.51,9.33,11.27,14-.09,3.53-.18,7.05-.27,10.58-.23.28-.52.47-.62.84.01.4-.03.79-.02,1.19l-6.14-.09c.11-1.62,1.97-3.04,2.08-3.7-.59.51-1.5,1.54-1.97,2.14-.17-.39-.05-.99-.22-1.39.46-1.12.45-2.62.7-3.92-.2-1.11-.53-1.46.38-1.94.36-.32.28-.88.29-1.48-.1-.2-.48-1.06-.6-1.36l-.18-.39c-1.69-3.61-3.83-7.2-6.73-9.98l-.73-.7c-.42-.25-.55-.34-.85-.56-1.28-1.24-3.07-2.11-4.72-2.75-2.01-.78-4.14-1.34-6.24-1.82-2.11-.48-4.24-.87-6.37-1.26-.92-.17-1.84-.34-2.76-.52-.64-.13-1.28-.26-1.91-.42Z"/>
    <path class="cls-3" d="M72.48,27.7l9.64,11.97c-.09,3.53-.18,7.05-.27,10.58-.23.28-.52.47-.62.84.01.4-.03.79-.02,1.19l-6.14-.09c.11-1.62,1.97-3.04,2.08-3.7-.59.51-1.5,1.54-1.97,2.14-.17-.39-.05-.99-.22-1.39.46-1.12.45-2.62.7-3.92-.2-1.11-.53-1.46.38-1.94.36-.32.28-.88.29-1.48-.1-.2-.48-1.06-.6-1.36l-.18-.39c-1.69-3.61-3.83-7.2-6.73-9.98l-.73-.7c-.42-.25-.55-.34-.85-.56-1.06-1.03-2.48-1.81-3.87-2.41,3.54-.38,6.5.18,9.13,1.21Z"/>
    <path class="cls-3" d="M66.93,29.01c.53.37,1.12.91,1.72,1.49l.62,2.14c.22.09.29.18.37.27.32-.05.46.04.53.34.17.69.39,1.45.53,2.11.04.2-.04.24,0,.45.36,1.44,1.11,3.02,1.47,4.46h.04c.09.25.13.52.24.77,1.32.13,2.02.48,2.97,2.92.24.02.31.66.38,1,.25-.02.16.16.18.52.22-.02.18.32.09.43.45,1.59.86,3.25,1.46,4.22-.05.27-.1.53-.14.8-1.08-.2-1.78-1.97-2.29-4.4-.16,0-.22-.2-.27-.45-.35-.15-.29-.39-.14-.51-.27-.15-.2-.15-.21-.47-.29,0-.5,0-.8-.01.3.9.41,1.66.71,2.56.5.26.46.54.26,1.05.08.3.09.29.21.51.31.88.27,1.05-.02,1.57-.12.6-.04,1.02-.1,1.59-.21-.01-.87-.02-.89-.03-.07-.28.07-.89-.05-1.28-.26-.55-.94-1.11-1.2-1.67-.86-2.59-1.55-5.15-2.32-7.76l.12-.06s.03-.02.05-.02c-.49-1.69-1.07-3.68-1.55-5.37-.1-.11-.16.03-.3-.23-.26-.71-.54-1.41-.79-2.13-.07-.3.22-.26.3-.39-.06-.23.05-.34.17-.45-.41-1.28-.82-2.58-1.23-3.86-.03-.03-.07-.06-.1-.09h0ZM73.98,44.51c.11-.13.17-.31.28-.44-.16-.39-.36-.86-.52-1.25-.15-.27-.17-.23-.41-.1-.11.11-.12.16-.18.31.09.48.2.98.37,1.33.02-.07.42.04.46.15h0ZM72.96,42.67c.5-.5.85-.45,1.14.08.17.4.33.87.51,1.27.22.17.18.07.23.35.1-.11.2-.21.3-.31-.52-1.27-.86-2.54-2.55-2.68.11.42.27.88.38,1.3Z"/>
    <path class="cls-3" d="M51.27,65.22c.19.07.21.35.5.4,1.45.07,2.94.16,4.39.23-.15-.16-.24-.3-.31-.46-1.77-.4-3.58-.81-5.35-1.21-.47.19-.95.38-1.42.56.73.16,1.46.32,2.19.49Z"/>
    <path class="cls-3" d="M47.46,59.39s.03.05.04.07c-.58.87-.6,1.81-.47,2.76-.84,1.5-.51,1.96.23,2.42.44-.03,1.02,0,1.48.12,1.46.06,2.91.1,4.37.13.13-1.41.25-2.93.38-4.35-.29-.01-.56-.03-.89-.04-.02,0-.04,0-.06,0-.05.59-.04,1.18-.12,1.77-1.28-.13-2.54-.12-3.82-.24.35-1.61.5-3,.84-4.61l-1.18-1.56c-.1.54-.24.85-.34,1.39-.02-.04-.04-.07-.05-.11-.14.75-.27,1.5-.4,2.26Z"/>
    <path class="cls-3" d="M57.52,53.27c.35-1.32.7-2.63,1.05-3.95l.05-.2h.21c.46,0,.92,0,1.38,0h.22s.04.22.04.22c.26,1.28.14,2.63-.06,3.92.11,0,.21,0,.32,0,.35-1.28.77-2.54,1.04-3.84l.04-.18.18-.03c.53-.09.98-.11,1.51,0l.18.04.03.18c.22,1.26.11,2.6-.05,3.87.11,0,.22,0,.33,0,.52-1.28.66-2.67,1.03-4l.06-.21h.21c.2.02.41,0,.61,0,.2,0,.41,0,.61,0,.2.01.47.05.53.29h0s0,.02,0,.02c.12.75.14,1.5.09,2.26-.04.57-.13,1.13-.23,1.68.16,0,.33,0,.49,0,.02-.06.03-.12.04-.18h0s0-.01,0-.01c.32-1.27.63-2.54.95-3.81h0s0,0,0,0c.06-.2.28-.24.46-.26.16-.02.33-.03.5-.03.17,0,.34,0,.5,0,.18.01.42.04.47.25h0s0,.03,0,.03c.21,1.39.26,2.72-.08,4.07h.14s0,0,0,0c.14,0,.28,0,.42,0,0-.04.02-.07.03-.11h-.04s.09-.36.09-.36c.26-1.09.54-2.18.8-3.28h0s0-.01,0-.01c.04-.15.04-.26.14-.4.07-.09.16-.14.26-.17h.03s.04,0,.04,0c.39,0,.78-.02,1.17-.02h.2s.05.2.05.2c.06.23.13.45.19.68v.05s0,.05,0,.05c-.13,1.19-.26,2.38-.39,3.56v.04s-.02.04-.02.04c-.37.84-.74,1.68-1.12,2.52l-.04.09-.09.04c-.85.4-1.7.81-2.54,1.21l-.04.02h-.04c-1.15.17-2.29.33-3.44.49h-.03s-.03,0-.03,0c-.52-.04-1.05-.04-1.57-.08-2.28-.05-4.56-.16-6.84-.21h-.16s-.07-.15-.07-.15c-.09-.19-.52-.34-.72-.37l-.16-.02-.81-2.33.19-.11c.49-.3,1.33-1.02,1.64-1.52Z"/>
    <path class="cls-3" d="M56.02,55.03l.68,1.97c.29.04.78.23.92.52,2.28.05,4.57.16,6.84.21.55.04,1.03.03,1.58.08,1.15-.16,2.29-.32,3.44-.48.85-.4,1.7-.81,2.54-1.21.37-.84.74-1.68,1.11-2.52.13-1.19.26-2.38.39-3.56-.06-.23-.13-.45-.19-.68-.39,0-.78.02-1.17.02-.17.04-.16.21-.2.38-.26,1.1-.54,2.19-.8,3.28h.03c-.04.21-.1.46-.16.67-.21,0-.42,0-.63,0l-.5.02c.31-1.01.49-2.24.17-4.32-.02-.09-1.38-.07-1.41.03-.33,1.3-.63,2.52-.95,3.81-.02.1-.04.19-.07.29l-.03.11c-.34,0-.68,0-1.02,0,.25-1.29.45-2.59.2-4.17-.04-.14-1.02-.07-1.49-.09-.39,1.39-.52,2.84-1.11,4.2-.23,0-.59-.02-.82-.01.16-1.24.33-2.74.09-4.09-.49-.11-.91-.08-1.41,0-.29,1.41-.74,2.72-1.1,4.05-.28,0-.57,0-.85.01.21-1.26.4-2.76.12-4.15-.46,0-.92,0-1.38,0-.35,1.33-.71,2.66-1.06,3.99-.32.54-1.22,1.32-1.75,1.65Z"/>
    <path class="cls-2" d="M69.91,53.67c.3-1,.47-2.22.16-4.27,0-.02-.09-.04-.21-.05.06,1.57-.05,3.07-.58,4.3l.63.02Z"/>
    <path class="cls-2" d="M60.1,53.47c.21-1.25.38-2.72.11-4.08h-.23c.03,1.48-.15,2.89-.66,4.06.24,0,.52.01.78.02Z"/>
    <path class="cls-2" d="M63.36,53.55c.16-1.24.32-2.74.09-4.08-.08-.02-.15-.03-.22-.04.04,1.5-.08,2.92-.59,4.1l.73.02Z"/>
    <path class="cls-2" d="M66.6,53.6c.24-1.28.44-2.56.19-4.13-.01-.05-.14-.07-.33-.08.05,1.53-.07,2.99-.59,4.2l.72.02Z"/>
    <path class="cls-3" d="M72.6,58.75c-.08.41-.14.83-.19,1.24-.06.45-.1.9-.13,1.34-.01.18-.02.36-.02.54,0,.12,0,.25.01.36v.04s0,.04,0,.04c-.32,1.55-.64,3.1-.99,4.64v.02s0,.02,0,.02c-.48,1.35-1.44,2.78-2.92,3.15h-.04s-.11,0-.11,0h-.02c-.29-.08-.55-.2-.76-.41-.83-.75-1.62-1.55-2.3-2.43-1.14-1.47-1.92-3.07-2.52-4.82-.35-1.04.34-2.38.91-3.22.49-.72,1.29-1.66,2.06-2.08l.04-.02h.04c.58-.12,1.16-.13,1.75-.15.53-.02,1.07-.04,1.59-.17.5-.13.92-.35,1.3-.71.64-.88,1.46-1.6,2.1-2.47.48-.82.56-1.84.67-2.76.04-.51.07-.99.05-1.51l-.02-.54.45.31c.25.17.41.57.41.88.03.62-.01,1.27-.06,1.89-.06.79-.16,1.58-.27,2.36-.13.87-.28,1.75-.47,2.61-.08.36-.17.72-.27,1.08-.08.27-.16.54-.27.79Z"/>
    <path class="cls-5" d="M68.25,69.88h.04c1.24-.31,2.2-1.49,2.73-2.97.34-1.53.67-3.08.99-4.63-.07-.6.11-2.4.33-3.6.67-1.56,1.42-6.58,1.33-8.64,0-.31-.19-.58-.3-.66.02.6,0,1.01-.05,1.54-.13,1.19-.22,2.08-.71,2.89-.65.89-1.47,1.61-2.12,2.5-1.35,1.31-3.1.79-4.79,1.11-1.23.69-3.37,3.44-2.84,4.98,1.09,3.18,2.54,5.16,4.76,7.14.17.18.39.28.63.34Z"/>
    <path class="cls-3" d="M43.18,51.93c.05,0,.1,0,.15,0,1.39,2.51,2.78,5.02,4.17,7.53-.02.02-.08.07-.1.09l1.3,2.44c.39.11.89-.06,1.22-.52l-.34-1.9s-1.6-2.73-1.61-2.7c-1.01-1.99-2.07-3.61-3.08-5.6.01-.01.02-.03.03-.04l-.77-.58c-.36.37-.71.74-1.07,1.11l.09.17Z"/>
    <path class="cls-2" d="M49.25,62.02c.15-.04.3-.13.44-.27l-5.37-10.3-.46.29,5.39,10.28Z"/>
    <path class="cls-3" d="M31.74,32.48c.17.41.35.84.54,1.28-.03.13.11.48.17.61.02.04-.17.04-.14.09.04.08.08.16.13.23.04.08.25,0,.29.08.05.09.1.18.15.27.06.1,0,.35.05.45.04.07.29.09.33.16.16.28.33.57.49.85.03.05-.16.18-.13.23.16.3.23.54.42.83.06.09.25-.08.31.02.38.57.36,1.47,1.24,1.48,1.42,2.43,2.78,5.04,4.19,7.47.13.37,0,1.14.4,1.56.34.04.55-.05.89-.01.05.16.22.27.26.46.05.2-.17.11.03.65.36.91.67,1.47,1.03,2.38.22.39.65.36.95.36l.02.03c.62-.07,1.03-.27,1.56-.66v-.02c.12-.18.23-.4.35-.63.06-.22.11-.45,0-.65-.3-.57-.81-1.78-1.28-2.35-.33-.4-.52-.19-.73-.59-2.34-4.42-4.15-8.8-6.5-13.22-.25-.56-.43-1.12-.68-1.69-.38.68-1.57.93-2.04.09-.31-.77-.57-1.56-.88-2.33-.41.19-.69,1.18-.27,1.94.15.28.3.57.45.85.05-.02.1-.05.14-.09-.06.15-.1.36-.15.51-.12.19.41.95.62,1.47.1,0,.2,0,.29,0,.22.53.42.94.64,1.47-.29-.07-.53.05-.82-.01-.05-.11-.14-.27-.19-.38.04-.13-.02-.18-.06-.25.15-.32-.02-.63-.18-.58-.09-.13-.11-.29-.19-.42.08-.36,0-.64-.26-.54-.06-.16-.15-.37-.29-.42-.14-.17-.18-.47-.32-.64.02,0,.04,0,.05,0l-.89-.31h0ZM34.73,37.26c.1-.11.19-.22.29-.33.13.12.12.08.31.04.09.18.15.34.24.52.03.11.11.04.15.04,1.13,2.28,2.24,4.56,3.37,6.84-.94-1.7-1.88-3.4-2.82-5.09-.24-.43-.51-.73-.83-.64-.26-.45-.43-.93-.69-1.37Z"/>
    <path class="cls-3" d="M36.63,31.4s-.02.05-.02.06c-.13.47-.38.94-.76,1.25-.3.24-.7.38-1.07.23-.19-.08-.33-.21-.43-.39v-.02s-.02-.02-.02-.02c-1.27-3.74-2.54-7.48-3.82-11.22l-.04-.12.07-.11c.05-.09.11-.18.16-.26l.24-.38.23.38c2.15,3.61,4.43,7.15,6.58,10.76l.02.03v.04c.12.45-.51.72-.73.33h0s0-.01,0-.01c-.03-.06-.07-.12-.12-.18-.1-.13-.2-.23-.28-.37Z"/>
    <path class="cls-5" d="M34.59,32.42c-1.27-3.74-2.54-7.48-3.82-11.22.05-.09.11-.18.16-.26,2.16,3.63,4.42,7.13,6.58,10.76.04.14-.18.24-.24.13-.11-.23-.29-.36-.43-.6-.17-.18-.39-.19-.49.17-.37,1.31-1.4,1.68-1.76,1.04Z"/>
    <path class="cls-3" d="M30.25,3.56h-.03s0,.01,0,.01c-.24,1.24-.47,2.48-.64,3.79-.3-.03-.68.04-.98.01-.27-1.04-.42-2.48.27-3.7-.14,0-.28.02-.37.1-.38.31-.54,1-.63,1.46-.15.78-.21,1.59-.32,2.38l-.03.22h-.22s-.09.03-.13.04c-.56.24-.78,1.83-.8,2.32-.03.74,0,1.5.03,2.24.04.84.11,1.69.17,2.53.12,1.49.25,3.02.32,4.52,0,.06,0,.13.01.19.04.43.15.84.3,1.22l5.56-.87.09.16.06.1c.32-.06.64-.13.95-.21-.99-3.86-2.2-7.69-3.19-11.55-.23-1.48,1.05-1.42,1.98-1.38-1.1-.54-2.02-.6-2.57.33.11-1.23.24-2.41.48-3.61.05-.18.17-.34.33-.46l-.64.14Z"/>
    <path class="cls-3" d="M81.4,50.76c-.07.1-.13.21-.17.34.01.41-.03.81-.02,1.22-1.66.03-3.33.06-4.99.1.37-.88.73-1.77,1.1-2.65.16-.27.25-.49.61-.48,1.04-.01,2.07-.02,3.11-.03.12.5.25,1,.37,1.51Z"/>
    <path class="cls-3" d="M49.87,14.72c5.59.15,11.18.25,16.77.38,1.06.03,2.27.44,3.23.87,1.26.58,2.48,1.38,3.47,2.36.6.59,1.12,1.25,1.53,1.98.82,1.47,1.59,2.95,2.33,4.46.66,1.34,1.28,2.7,1.92,4.05.56,1.2,1.12,2.39,1.71,3.57.65,1.29,1.33,2.57,2.04,3.83l.05.08v.09c-.18,1.18-.32,2.37-.49,3.56l-.09.6-.39-.46c-2.42-2.87-4.84-5.74-7.25-8.61-2.66-2.74-5.79-5.11-9.51-6.18-1.66-.48-3.34-.91-5.02-1.31-1.79-.43-3.58-.83-5.38-1.21-1.68-.36-3.36-.7-5.04-1.03-.25.24-.62.42-.95.32h-.02s-.01-.01-.01-.01c-1.19-.5-2.4-.94-3.57-1.47-1.28-.58-2.43-1.26-3.52-2.16-.55-.46-.68-1.35-.63-2.02.06-.69.35-1.48.98-1.83h.03s.03-.02.03-.02c.7-.21,1.4-.43,2.1-.62.51-.14,1.02-.25,1.54-.3.54-.05,1.07-.03,1.6.04.75.09,1.51.23,2.26.37l.21.04v.21c.02.14.04.29.06.43Z"/>
    <path class="cls-5" d="M49.66,21.44c-.14.19-.49.44-.78.36-2.58-1.08-4.77-1.73-7.02-3.59-.81-.67-.72-2.82.32-3.4,3.5-1.05,3.66-1.22,7.37-.51.01.27.61.17.62.43,5.69.16,10.77.5,16.46.64,2.13.05,6.25,1.91,8.01,5.07,3.36,6.03,4.72,10.16,8,15.91-.16,1.1-.32,2.46-.48,3.56-2.42-2.87-4.84-5.75-7.26-8.62-2.72-2.81-5.89-5.18-9.64-6.26-4.68-1.35-10.36-2.55-15.61-3.59Z"/>
    <path class="cls-3" d="M48.3,21.56c-.36-.14-.71-.28-1.06-.42-.19-2.43-.81-4.82-1.69-7.22.3-.04.59-.05.9-.05.78,2.53,1.59,5.08,1.84,7.69h0ZM46.73,13.88c1.34,1.98,2.6,4.19,3.24,6.41.12.42.22.84.29,1.27.33.07.66.13.99.2-.2-1.14-.57-2.28-.93-3.37-.49-1.5-1.55-2.99-2.45-4.38-.43-.06-.8-.1-1.14-.12Z"/>
    <path class="cls-4" d="M33.3,5.38c.13.19.26.38.39.56,4.48,1.18,8.89,2.3,13.36,3.49.11-.14.23-.31.06-.53-4.61-1.2-9.21-2.32-13.81-3.52Z"/>
    <path class="cls-3" d="M53.43,57.27l-.36-.59c-6.91-11.41-13.63-22.93-20.53-34.34h0s0,0,0,0c-.07-.13-.16-.26-.24-.39-.27-.42-.53-.8-.73-1.25-.28-.62-.41-1.26-.46-1.93-.24-3.38-.3-6.76-.54-10.14h0s0-.02,0-.02c.02-1.39.96-2,2.18-1.27h.02s.01.02.01.02c2.83,2.27,5.52,4.71,8.35,6.99l.75.6-.95-.12c-.35-.04-.68.01-.96.23-.6.47-.71,1.46-.61,2.16.14,1.03.77,2.16,1.97,1.97l.1-.02.09.05c.91.55,1.88,1.02,2.71,1.68l.06.05.03.07c.37,1.02.75,2.04,1.13,3.06h0s0,0,0,0c3.55,10.31,7.02,20.65,10.58,30.95l.12.34v.02c.04.18.1.36.16.54.08.24.17.47.27.7.06.15.15.34.19.5l.07.28-.29.05c-.22.04-.42.13-.56.31-.44.58-.09,1.7.18,2.28.06.13.12.25.19.37l.29.51-.58-.11c-.11-.02-.21-.04-.32-.06h-.07s-.05-.06-.05-.06c-.1-.09-.2-.18-.28-.29-.31-.41-.42-.89-.65-1.33-.18,1.16-.34,2.33-.47,3.5.63.15,1.28.2,1.9.37l.4.12-.27.32c-.46.55-.35,1.42-.12,2.04l.18.5-.51-.15c-.85-.24-1.72-.38-2.56-.64-.04-.01-.07-.03-.1-.06-.14.02-.28.01-.41-.06-.31-.16-.43-.55-.49-.87-.04-.25-.07-.6-.03-.85.03-.25.09-.45.21-.68.09-.16.17-.3.24-.47.31-1.63.52-3.27.77-4.9Z"/>
    <path class="cls-5" d="M31.38,18.73c-.25-3.58-.29-6.55-.54-10.14.02-1.22.76-1.64,1.77-1.04,2.85,2.29,5.49,4.69,8.35,6.99-2.82-.35-2.39,5.35.4,4.9,1.03.62,1.87,1.02,2.69,1.66.37,1.02.75,2.04,1.13,3.06,3.55,10.31,7.02,20.65,10.58,30.95l.11.32c.14.67.55,1.51.61,1.74-1.4.25-1.13,2.05-.37,3.37-.11-.02-.21-.04-.32-.06-.53-.43-.62-1.19-1-1.78.13-.99.04-2.09.18-3.08-.39,2.39-.79,4.68-1.04,7.16.65.19,1.47.24,2.12.43-.45.54-.5,1.41-.17,2.31-.87-.25-1.71-.38-2.56-.64-.05-.01.13-.18.08-.2-.97.64-.96-1.08-.92-1.34.08-.55.26-.63.44-1.11.48-2.55.69-4.8,1.18-7.35-.08-.89.04-1.61.35-2.1-.44.1-.95.17-1.13.73-.14.43-.15.89.14,1.38-.02.56-.06,1.14-.16,1.62-6.95-11.49-13.58-22.86-20.53-34.34-.52-.94-1.25-1.61-1.4-3.46Z"/>
    <path class="cls-3" d="M46.49,27.97l.44,1.3c-1.39,2.53-3.69,4.33-6.57,5.58l-.46-.78c2.98-1.24,5.48-3.08,6.59-6.1h0ZM47.7,31.51c-.63.8-1.38,1.52-1.93,2.37-.5.84-.18,1.89.29,2.66,0,.07-.02.13-.03.2-.04.26.05.45.19.66h0s0,.02,0,.02c.06.07.13.09.2.09-.02.15-.03.24.01.45v.03s.03.02.03.02c.18.22.16.25.4.22,1.57,2.72,3.14,5.44,4.72,8.16.12.55.28,1.1.41,1.65-.08.09-.11.16-.07.3.05.17.11.32.2.47l.02.03.03.02c.3.18.64.06.82-.23l.03-.05-.02-.05c-.06-.15-.08-.3-.13-.45h0s0-.02,0-.02c-.05-.09-.1-.14-.17-.19-.04-.23-.13-.44-.17-.66.15-.31.01-.59-.14-.88l-.02-.03-.03-.02c-.06-.03-.12-.06-.18-.09-1.49-2.79-2.99-5.58-4.48-8.37.03-.1.03-.22,0-.32v-.02s-.01-.02-.01-.02c-.12-.19-.14-.41-.41-.39.01,0,.03-.02.04-.03.06-.06.06-.14.04-.21h0s0-.01,0-.01c-.07-.18-.19-.41-.39-.47-.06-.1-.1-.19-.22-.22-.11-.22-.22-.44-.33-.66-.08-.35.04-.6.21-.89.52-.55,1.04-1.17,1.52-1.85l-.42-1.23Z"/>
    <path class="cls-5" d="M33.18,7.44c1.59.95,3.46,2.7,5.11,3.91-3.53-3.29-4.27-4.07-6.14-7.8-.12-.23-.31-.35-.52-.37l-.57.44c-.1.08-.19.19-.23.31-.18.92-.31,1.85-.4,2.78.68-.43,1.55-.21,2.34.19l1.13.56-.72-.03Z"/>
    <path class="cls-3" d="M31.41,31.47c-1.14-3.19-2.22-6.57-3.19-9.81-.08-.26-.02-.49.16-.69l.25-.27.19.32c1.2,2,2.48,3.96,3.68,5.96l.02.03v.04c.1.34.25.69.37,1.02.13.35.24.73.38,1.07l.39.95,1,2.68c.27.73-.3-.19-1.15-.05l-1.37.23-.72-1.45Z"/>
    <path class="cls-3" d="M31.77,31.19c.02-.98.71-1.45,1.23-2-.15-.55-.59-1.53-.74-2.09-1.16-1.93-2.53-4.03-3.68-5.96-.08.09-.16.22-.1.43.96,3.19,2.2,6.53,3.3,9.61Z"/>
    <path class="cls-3" d="M52.93,12.45s.04-.11.02-.15c-.04-.09-.29-.13-.37-.14-1.35-.17-2.7-.34-4.05-.51h0c-.65-.12-1.3-.24-1.95-.37.02.05.04.1.06.16.41.6.83,1.21,1.24,1.82.96,1.6,2.33,3.35,2.91,5.12.41,1.26.84,2.57,1.01,3.89.23,1.81-.09,3.51-.59,5.25-.7,2.46-2.38,5.22-4.14,7.06-.17.29-.29.54-.21.89.11.22.22.44.33.66.11.03.16.12.22.22.2.06.32.28.39.47h0s0,.01,0,.01c.02.08.01.15-.04.21-.01.01-.03.02-.04.03.26-.02.29.19.41.39v.02s.01.02.01.02c.02.1.02.22,0,.32,1.49,2.79,2.99,5.58,4.48,8.37.06.03.12.06.18.09l.03.02.02.03c.15.29.28.56.14.88.03.22.13.43.17.66.07.05.12.1.17.19h0s0,.02,0,.02c.06.15.08.3.13.45l.02.05-.03.05c-.17.29-.52.4-.82.23l-.03-.02-.02-.03c-.09-.15-.15-.3-.2-.47-.03-.14,0-.21.08-.3-.12-.55-.29-1.1-.41-1.65-1.57-2.72-3.15-5.44-4.72-8.16-.24.02-.22,0-.4-.22l-.02-.02v-.03c-.05-.21-.04-.3-.02-.45-.07,0-.13-.03-.2-.09h0s0-.02,0-.02c-.14-.21-.23-.4-.19-.66,0-.07.02-.13.03-.2-.47-.77-.79-1.82-.29-2.66.78-1.2,1.95-2.15,2.63-3.41.97-1.8,1.91-3.69,1.99-5.77.02-.65.05-1.29.01-1.94-.05-.85-.19-1.67-.43-2.48-.71-2.48-2.21-4.97-3.73-7.11,1.18,3.86,2.55,7.77,2.02,11.88-.64,4.96-3.75,8.07-8.2,9.92-.71.29-1.47.42-2.22.45-.08,0-.15.01-.23.02-.04.07-.08.14-.12.2l-.04.06h-.07c-.28,0-.56,0-.84,0h-.09s-.02-.09-.02-.09c-.12-.52-.25-1.05-.37-1.57l-.05-.19.19.05c.35.08.65,0,.97.23.26.02.28.02.44.24.3.07.27.04.36.29.38-.02.72-.05,1.07-.24h0s0,0,0,0c3.73-1.39,6.86-3.57,7.78-7.64,1.05-4.65.19-8.98-1.49-13.38-.09-.25-.2-.49-.29-.75-.06-.11-.03-.26.06-.34-.03-.31-.08-.61-.12-.92h0s0-.01,0-.01c0-.49.05-1.07.7-.99.5.06,1.01.04,1.52.09.03-.01.07-.02.1-.03h0s0,0,0,0c.32-.07.52-.21.81.01.32.02.49.11.69.38.35.03.69.07,1.04.1.18.01.56.02.71.16.74.15,1.5.21,2.24.36.66.03,1.42.28,1.16,1.1-.05.15-.11.3-.17.44-.04.11-.18.48-.1.59.02.03.07.04.1.05,2.99.17,5.98.45,8.97.61,1.63,0,3.37-.03,4.97.37,1.95.48,3.47,1.56,4.93,2.91l.08.07-.12.17-.09-.05c-.59-.31-1.13-.67-1.69-1.03-.67-.43-1.29-.8-2.03-1.1-.42-.18-1.05-.26-1.5-.32-.72-.09-1.45-.14-2.17-.19-.78-.05-1.56-.08-2.34-.13-3.37-.19-6.75-.4-10.12-.61-.28-.02-.5-.24-.57-.5-.13-.45.1-.99.33-1.38h0ZM53.49,12.25c.09.38-.04.57-.2.97-.05.13-.1.37,0,.48.04.04.18.05.3.05-.15-.42.09-.98.21-1.42-.11-.03-.21-.05-.32-.07Z"/>
    <path class="cls-3" d="M63.28,14.35c-3.08-.17-5.9-.44-8.98-.62-.5-.05-.08-.81.06-1.23.2-.63-.27-.92-1.06-.95-.8-.16-1.49-.2-2.29-.37-.06-.11-.31-.13-.66-.15-.36-.03-.82-.08-1.1-.11-.24-.34-.43-.36-.67-.38-.25-.21-.4-.08-.74,0-.04.01-.08.03-.13.04-.51-.06-1.04-.04-1.55-.1-.55-.06-.56.44-.56.88.03.33.09.67.12,1-.1.03-.12.16-.08.23.09.27.2.49.29.76,1.85,4.83,2.49,9.06,1.5,13.45-.85,3.78-3.62,6.15-7.85,7.72-.41.23-.81.24-1.21.26-.11-.31-.01-.23-.35-.31-.18-.25-.17-.21-.42-.23-.3-.22-.64-.15-.95-.23.12.52.25,1.05.37,1.57.27,0,.56,0,.84,0,.05-.09.1-.17.15-.26.1,0,.2-.01.29-.02.75-.03,1.5-.16,2.19-.45,2.69-1.12,7.33-3.63,8.13-9.82.54-4.23-.94-8.29-2.1-12.1-.04-.19-.18-.36-.22-.55,5.04,6.9,4.76,9.97,4.68,12.33-.08,2.1-1.02,3.99-2,5.82-.66,1.23-1.87,2.24-2.63,3.42-.4.67-.28,1.62.31,2.56-.03.26-.14.42.13.81.08.08.17.06.25.04-.04.28-.06.29,0,.57.18.21.1.2.37.17,1.59,2.75,3.18,5.5,4.77,8.25.12.57.3,1.17.43,1.73-.09.09-.12.12-.09.23.05.18.11.31.19.43.25.15.52.03.65-.18-.07-.18-.07-.27-.13-.45-.05-.09-.09-.12-.18-.18-.03-.25-.15-.5-.18-.75.15-.29.01-.54-.12-.8-.07-.04-.14-.07-.21-.11-1.51-2.83-3.01-5.62-4.52-8.44.03-.08.04-.21.02-.31-.13-.21-.12-.37-.34-.32-.04-.05-.05.19-.11-.19.06-.05.15-.03.12-.15-.08-.23-.2-.38-.35-.4-.09-.13-.1-.21-.22-.22-.13-.25-.23-.47-.36-.72-.1-.41.05-.7.23-1.01,1.72-1.79,3.42-4.54,4.12-7.02,1.14-4.02.67-5.73-.42-9.07-.55-1.69-1.98-3.58-2.9-5.1-.42-.61-.83-1.22-1.25-1.83-.05-.12-.1-.25-.15-.37.72.14,1.45.27,2.17.41,1.35.17,2.7.34,4.05.51.41.06.56.18.44.46-.7,1.2-.2,1.68.15,1.7,3.36.21,6.76.4,10.12.61,1.97.1,5.03.21,6.05.64,1.63.68,2.29,1.38,3.73,2.14-3.46-3.22-5.73-3.25-9.81-3.24h0ZM53.31,12.08c.2.05.45.11.65.16-.14.62-.47,1.22-.16,1.62-.19,0-.49.03-.59-.08-.15-.15-.11-.41-.03-.61.14-.36.33-.57.13-1.09Z"/>
    <path class="cls-3" d="M63.28,14.35c-3.08-.17-5.9-.44-8.98-.62-.5-.05-.08-.81.06-1.23.2-.63-.27-.92-1.06-.95-.8-.16-1.49-.2-2.29-.37-.06-.11-.31-.13-.66-.15-.36-.03-.82-.08-1.1-.11-.24-.34-.43-.36-.67-.38-.02-.02-.05-.04-.07-.05.19.45.18.78-.05,1.02l.09.02c1.35.17,2.7.34,4.05.51.41.06.56.18.44.46-.7,1.2-.2,1.68.15,1.7,3.36.21,6.6.27,9.96.47,1.97.1,5.18.35,6.21.77,1.63.68,2.29,1.38,3.73,2.14-3.25-3.06-5.44-3.03-9.81-3.24h0ZM53.31,12.08c.2.05.45.11.65.16-.14.62-.47,1.22-.16,1.62-.19,0-.49.03-.59-.08-.15-.15-.11-.41-.03-.61.14-.36.33-.57.13-1.09Z"/>
    <path class="cls-5" d="M47.03,37.46c-.03.2-.04.24,0,.48.18.21.1.2.37.17,1.59,2.75,3.18,5.5,4.77,8.25.12.57.3,1.17.43,1.73-.09.09-.12.12-.09.23.05.18.11.31.19.43.25.15.52.03.65-.18-.07-.18-.07-.27-.13-.45-.05-.09-.09-.12-.18-.18-.03-.25-.15-.5-.18-.75.15-.29.01-.54-.12-.8-.07-.04-.14-.07-.21-.11-1.51-2.83-3.01-5.62-4.52-8.44.03-.08.04-.21.02-.31-.13-.21-.12-.37-.34-.32-.03-.04-.04.09-.07-.01-.19.11-.38.2-.57.26Z"/>
    <path class="cls-3" d="M52.05,47.5c-.12.11-.26.21-.36.33l-.29.33-.16-.41c-.08-.21-.16-.41-.24-.62l-.07-.18.14-.13c.17-.15.34-.3.51-.46l.09-.08h.11c.11.02.49.05.58-.03.01-.01.02-.03.03-.05l.12-.31.28.18c.4.26.41.58.4,1.03v.15s-.13.08-.13.08c-.34.21-.64.17-1,.15Z"/>
    <path class="cls-5" d="M51.24,47.03c.08.2.16.41.24.62.14-.15.32-.28.46-.43.36.01.66.08.97-.1.01-.46-.01-.62-.27-.79-.11.28-.4.29-.89.25-.17.15-.34.31-.51.46Z"/>
    <path class="cls-3" d="M57.99,62.32c.44.65.8,1.37,1.25,2.01l.11.17-.13.16c-.43.54-.72,1.17-1.39,1.45-.31.17-.67.25-1.01.1-.48-.21-.67-.79-.72-1.27-.07-.66.06-1.39.27-2.02-.07-.88-.16-1.75-.23-2.63-.36-.88-.62-1.84.02-2.67.21-.27.5-.49.86-.48.46.02.83.4,1.1.74l.03.04.02.05c.12.38.13.7.11,1.09,0,.1,0,.2-.01.3v.02s0,.02,0,.02c-.09.49-.12.98-.15,1.48-.03.48-.06.96-.14,1.43Z"/>
    <path class="cls-5" d="M56.66,62.95c-.08-.95-.16-1.77-.24-2.73-.34-.81-.61-1.69-.03-2.43.54-.69,1.07-.33,1.54.26.16.5.09.88.09,1.3-.19,1.07-.12,1.96-.31,3.03.46.66.85,1.44,1.31,2.11-.43.55-.69,1.13-1.3,1.38-1.19.66-1.73-.91-1.06-2.91Z"/>
    <path class="cls-3" d="M73.69,22.97c-.82-.07-1.31-1.77-.49-2.41.42-.02.78-.07,1.2-.09.89.28,1.01,1.69.42,2.2.89,3.19,1.77,6.38,2.66,9.57.19.04.36.08.41.25.37,0,.49.13.54.42.22.72.35,1.49.56,2.22.04.17-.08.25-.14.36,1,3.75,2.15,7.42,3.15,11.17.04,1.33.08,2.66.13,3.99-.19.05-.37.1-.56.15-.15.02-.3.05-.45.07-.25,0-.86,0-1.09-.24-.94-1.42-1.09-2.35-1.69-4.13-.05-.15-.09-.28-.13-.42-.29-.04-.33-.31-.17-.5-.02-.05-.03-.1-.05-.15-.21-.1-.21-.21-.14-.39-.2.02-.41.01-.6-.04-.02,0-.32-.6.07-.52.06-.18.13-.3.3-.39-.14-1.71.48-2.2,1.05-2.74-.45-1.84-1.09-3.7-1.54-5.54-.19-.04-.32.07-.4-.23-.17-.57-.35-1.09-.52-1.66-.19-.46-.17-.79.05-.89.02-.31.18-.32.29-.49-.94-3.15-1.89-6.41-2.84-9.56h0ZM78.24,44.38c.11-.1.2-.26.31-.37-.13-.57-.25-1.14.45-1.59-.08-.25-.17-.51-.25-.76-.64.68-.99,1.44-.78,2.23.22.14.2.23.27.48h0ZM78.91,43.96s.07,0,.1,0c.09.05.12.29.13.44.09-.06.25-.04.34-.11-.13-.45-.28-.97-.42-1.42-.27.22-.45.49-.15,1.09h0ZM78.43,45c-.01.08.05.2-.02.25.03.1.05.2.08.29.11.03.16.05.2.28-.02.05-.05.09-.07.14.04.09.05.19.09.28.02.07-.04.08-.06.12.37,1.04.67,2.18,1.04,3.22.13-.01.39-.03.52-.05-.34-1.15-.75-2.39-1.1-3.53-.22-.03-.26-.17-.15-.39-.02-.07-.03-.14-.05-.21-.06-.06-.14-.02-.17-.15,0-.07-.01-.17,0-.24-.09,0-.2,0-.29-.01h0ZM79.35,45c.09.17.09.22,0,.29.03.1.05.2.08.29.18.05.18.18.05.25.09.3.12.42.13.59.32.98.59,1.96.91,2.95.15.02.29,0,.44.03-.43-1.46-.85-2.93-1.28-4.39-.12,0-.21,0-.33,0Z"/>
    <path class="cls-2" d="M76.93,32.82c.17.02.3-.03.4-.13-.82-3.01-1.65-6.05-2.47-9.06-.17.05-.32.1-.49.11.85,3.03,1.71,6.05,2.56,9.08Z"/>
    <path class="cls-2" d="M74.51,20.82c.24,0,.44.34.46.75.02.41-.16.74-.39.74-.24,0-.44-.34-.46-.75-.02-.41.16-.74.39-.74Z"/>
    <path class="cls-3" d="M72.19,19.78s.09,0,.13.02c-.59.11-1.02.99-.98,2.07.05,1.08.55,1.97,1.16,2.1-.04,0-.09.01-.13.01-.66-.01-1.24-.96-1.29-2.11-.05-1.16.45-2.09,1.11-2.08Z"/>
    <path class="cls-3" d="M42.64,15.21c.61,0,1.15.67,1.2,1.48.05.81-.4,1.46-1.01,1.45-.61,0-1.15-.67-1.2-1.48-.05-.81.4-1.46,1.01-1.45Z"/>
    <path class="cls-3" d="M35.37,29.76c.5,0,.9.57.88,1.25-.01.68-.42,1.23-.92,1.22-.5,0-.9-.57-.89-1.25.01-.68.42-1.23.92-1.22Z"/>
    <path class="cls-3" d="M94.67,28.34c.16.05.29.16.36.32.03.08.04.15.04.23.71.26,1.43.5,2.14.75.32-.12.7-.11,1.01,0,.57.21.91.73,1.1,1.29h0s0,.03,0,.03c.23,1.04.3,2.12.35,3.18h0c0,.61,0,1.21.02,1.81.03,1.61.07,3.22.18,4.82.04.67.1,1.35.17,2.02.06.52.13,1.04.24,1.55l.05.25-.25.07c-3.23.92-5.35,2.55-6.48,5.69,5.08.52,9.83,1.05,14.71,1.53-5.06-.21-10.15-.66-15.16-.86-3.52-.14-7.05.04-10.57-.1-.27,0-.65.01-.83-.23-.06-.08-.08-.17-.08-.27-.08-5.16.35-10.29.58-15.44l.04-.95.07.12c.12-.87.25-1.74.35-2.61,0-.35.1-.69.11-1.04-.03-.55.04-1.12-.04-1.67-.11-.46.12-.77.57-.88h.03s.03,0,.03,0c.73-.04,1.45-.02,2.18-.06h.05s.04,0,.04,0c.37.1.52.45.8.64.34.06.86.17,1.08.47.9-.08,1.81-.05,2.71-.13,0-.12,0-.25,0-.36,0-.37.04-.92.49-1.03h.03s.03,0,.03,0c.18,0,.36-.03.54-.05.39-.04.79-.1,1.18-.1.36,0,.75.06,1.01.33h0s0,.01,0,.01c.33.38.68.47,1.11.66Z"/>
    <path class="cls-5" d="M99.39,34.17c-.04-1.06-.12-2.15-.34-3.14-.44-1.33-1.43-1.29-1.84-1.09-.86-.31-1.57-.55-2.43-.86.02-.18.06-.4-.21-.48-.4-.18-.84-.29-1.23-.74-.44-.46-1.56-.14-2.52-.09-.38.1-.24.99-.3,1.38-.96.11-2.18.07-3.14.18-.02-.27-.45-.41-1-.51-.33-.2-.49-.56-.77-.64-.75.04-1.44.02-2.18.06-.29.07-.45.23-.37.57.08.55.01,1.18.04,1.72,0,.35-.1.71-.11,1.06-.12,1.15-.33,2.3-.45,3.45h0c-.23,5.12-.67,10.24-.58,15.41,0,.23.32.22.65.23,3.54.14,7.03-.04,10.57.1,2.26.09,4.55.42,6.82.51-1.95-.33-5.71-.58-6.76-.66,1.13-3.45,3.35-5.23,6.78-6.2-.44-2.04-.6-6.35-.61-10.25Z"/>
    <path class="cls-3" d="M87.73,29.29c-.12,0-.23.02-.35.03-.02-.27-.45-.41-1-.51-.33-.2-.49-.56-.77-.64-.75.04-1.44.02-2.18.06-.29.07-.45.23-.37.57.08.55.01,1.18.04,1.72,0,.12-.01.24-.03.35.82.11,1.68.06,2.51-.02.08-1.86,1.01-1.37,2.15-1.57Z"/>
    <path class="cls-3" d="M94.78,29.03c.02-.17.03-.36-.21-.43-.4-.18-.84-.29-1.23-.74-.44-.46-1.56-.14-2.52-.09-.38.1-.24.97-.3,1.36l.06,1.26c.91.02,1.82.04,2.74.06-.06-1.68.67-1.56,1.46-1.42Z"/>
    <path class="cls-3" d="M82.46,48.55c.32-5.27.64-10.32.96-15.59.1-.87.57-1.69,1.41-1.68,2.66-.08,4.47-.23,7.13-.32.52,0,1.11.3,1.11.71-.24,5.44-.27,10.88-.51,16.32-.01.96-.17,1.97-.94,2.17-2.54.05-4.96-.03-7.5.02-1.04-.02-1.66-.73-1.65-1.62Z"/>
    <path class="cls-3" d="M92.79,31.66s0-.02,0-.03c-.05-.2-.43-.34-.6-.37-.07-.01-.15-.02-.23-.03-2.38.07-4.75.24-7.12.32h0s0,0,0,0c-.74-.01-1.06.82-1.13,1.43-.32,5.19-.64,10.39-.95,15.58,0,.82.59,1.32,1.38,1.34,2.49-.05,4.97.03,7.46-.02.65-.19.7-1.35.7-1.9h0s0,0,0,0c.24-5.43.27-10.88.51-16.31Z"/>
    <path class="cls-2" d="M92.57,38.24c.04-1.75.09-3.5.16-5.25l-1.76.09c-.21.05-.23.23-.23.49.12,1.53.2,3.17.31,4.7.49.02,1.01-.03,1.52-.02Z"/>
    <path class="cls-2" d="M85.75,31.51c.88.22,1.76.53,2.62.87-.04.6.01,1.36-.03,1.97-.88.97-1.48,2.02-1.31,3.89-.39.05-1.02.04-1.41.08-.39.01-.78.02-1.17.04-.34-.54-.67-1.14-.98-1.74.07-1.22.15-2.43.22-3.65.07-.61.39-1.44,1.13-1.43h.01c.3,0,.61-.02.91-.03Z"/>
    <path class="cls-3" d="M93.33,48.08c-.12-5.57.13-11.41.57-16.69.01-.79.32-1.59.87-1.54.55.05,1.29.42,1.75.6.27.11.24.54.24.62.05,4.34,0,8.71.05,13.05-1.54.87-2.63,2.36-3.48,3.95Z"/>
    <path class="cls-3" d="M93.58,47.08c.75-1.23,1.7-2.36,2.95-3.11-.04-4.3,0-8.59-.05-12.89,0-.07,0-.34-.07-.37-.48-.2-1.15-.53-1.67-.59-.03,0-.07,0-.1.01-.15.05-.26.26-.32.4-.11.26-.15.58-.16.86h0s0,.02,0,.02c-.31,3.69-.51,7.4-.58,11.1-.03,1.52-.03,3.04-.01,4.56Z"/>
    <path class="cls-2" d="M96.51,37.46c0-1.44,0-2.88,0-4.32-.82-.05-1.64-.1-2.45-.16-.12,1.63-.22,3.25-.3,4.88.9-.22,1.84-.35,2.76-.41Z"/>
    <path class="cls-3" d="M97.34,30.81c.23.08.51.17.74.25.08.34.26.59.45.8.06,3.41.08,6.82.14,10.22.02.64,0,.96-.26,1.21-.4.24-.81.5-1.21.74-.01-4.35-.02-8.7-.03-13.05,0-.15.04-.21.17-.18Z"/>
    <path class="cls-3" d="M98.25,43.08s.04-.05.06-.08c.13-.21.1-.67.1-.91-.07-3.38-.08-6.75-.14-10.13-.18-.21-.31-.44-.4-.7-.14-.05-.28-.09-.41-.14.01,4.14.02,8.28.03,12.42.26-.16.51-.32.77-.47Z"/>
    <path class="cls-2" d="M97.45,33.2v4.23c.17,0,.33,0,.48,0,.01-1.37-.08-2.8-.15-4.2l-.33-.02Z"/>
    <path class="cls-1" d="M90.91,28.29c.49-.17,1.03-.18,1.58-.1.27.27.15,1.24.11,1.73-.23.42-1.39.35-1.62.11-.28-.62-.15-1.13-.07-1.74Z"/>
    <path class="cls-2" d="M91.15,29.9c.21.15,1.04.16,1.23-.05.03-.32.12-1.18-.02-1.45-.42-.05-.85-.05-1.26.06-.07.51-.16.94.05,1.44Z"/>
    <path class="cls-1" d="M83.39,28.81c.43-.15.9-.15,1.39-.08.23.24.13,1.09.09,1.52-.2.37-1.21.31-1.42.09-.25-.54-.13-.99-.06-1.53Z"/>
    <path class="cls-2" d="M83.59,28.98c-.06.43-.13.8.04,1.22.18.12.87.12,1.03-.04.03-.28.1-1,0-1.23-.35-.04-.72-.04-1.07.05Z"/>
    <path class="cls-3" d="M32.44,5.9c-.17.18-.37.28-.6.28-.56,0-1.02-.67-1.03-1.48,0-.73.35-1.33.83-1.43-.37.19-.64.71-.63,1.33,0,.78.46,1.43,1,1.44.15,0,.3-.05.42-.13Z"/>
    <path class="cls-3" d="M31.67,5.27c.48.34.96.69,1.43,1.03.3.1.34-.06.22-.46-.25-.37-.48-.77-.73-1.14-.17-.79-.7-.88-.92-.71-.22.18-.39.88,0,1.28Z"/>
    <path class="cls-3" d="M48.84,61.86c-.12,1.01-.11,2.02.06,3.03.36.03.83.15,1.19.18-.04-1.08.04-2.24.29-3.32-.51.04-1.03.07-1.54.11Z"/>
    <polygon class="cls-1" points="67.78 30.2 68.54 30.93 68.97 32.45 68.51 32.62 67.78 30.2"/>
    <path class="cls-3" d="M53.21,62.6c.23,0,.42.42.41.94,0,.51-.2.93-.44.92-.23,0-.42-.42-.41-.94,0-.51.2-.93.44-.92Z"/>
    <path class="cls-3" d="M57.52,63.68c.23,0,.42.42.41.94,0,.51-.2.93-.44.92-.24,0-.42-.42-.41-.94,0-.51.2-.93.44-.92Z"/>
    <path class="cls-3" d="M54.55,53.33c.19,0,.34.34.33.75,0,.41-.16.75-.35.74-.19,0-.34-.34-.33-.75,0-.41.16-.75.35-.74Z"/>
    <path class="cls-3" d="M57.06,57.84c.26,0,.47.34.46.76,0,.41-.22.75-.49.74-.26,0-.47-.34-.46-.76,0-.41.22-.75.49-.74Z"/>
    <path class="cls-2" d="M35.36,30.33c.27,0,.48.3.48.67,0,.37-.23.66-.5.66-.27,0-.48-.3-.48-.67,0-.37.23-.66.5-.66Z"/>
    <path class="cls-3" d="M76.33,53.41c5.64.1,11.4.01,17.03.11.1-.08.13-.15.19-.25-5.77-.11-11.51-.01-17.28-.12-.04.09-.1.16.06.26Z"/>
    <path class="cls-3" d="M78.65,53.59c-.06.25-.1.5,0,.76,4.11.03,8.22.07,12.33.1.14-.19.2-.4,0-.65-4.12-.07-8.23-.14-12.35-.21Z"/>
    <path class="cls-2" d="M42.68,15.72c.4,0,.75.44.78.96.03.53-.26.95-.66.94-.4,0-.75-.44-.78-.96-.03-.53.26-.95.66-.94Z"/>
    <path class="cls-3" d="M100.23,44.37c.16,2.07.13,4.3.1,6.41-.01.78-.02,1.55-.02,2.28h-.27c0-.74.01-1.5.02-2.29.03-2.1.06-4.32-.1-6.39l.27-.02Z"/>
    <path class="cls-2" d="M50.57,9.41c.01.2-.03.54-.04.68,3.66,1.01,7.39,1.89,11.05,2.9.09-.14.1-.32.05-.55-3.69-1.01-7.37-2.02-11.06-3.03Z"/>
    <path class="cls-2" d="M47.78,8.82c.77.17,1.41.39,2.18.55.03.24-.03.56-.05.77-.76-.19-1.48-.35-2.25-.54.04-.17.13-.56.12-.78Z"/>
    <path class="cls-2" d="M77.71,35.95c.19-.01.37-.03.53-.13l3.02,10.72c0,.55-.02,1.1-.03,1.64-1.19-4.07-2.33-8.28-3.52-12.23Z"/>
    <path class="cls-2" d="M76.93,33.37c.3-.04.6-.09.87-.24.2.77.35,1.34.55,2.11-.24.14-.5.22-.8.19-.23-.74-.38-1.32-.61-2.06Z"/>
    <path class="cls-2" d="M69.61,36.11c.29.03.36-.06.57-.14,1.3,4.35,2.57,8.69,3.87,13.04-.15-.1-.31-.21-.46-.31-.14-.03-.19-.05-.33-.08-1.22-4.13-2.43-8.37-3.64-12.51Z"/>
    <path class="cls-2" d="M68.37,33.39c.48-.06.83-.24,1.12-.36.2.75.42,1.57.62,2.33-.33.14-.61.32-1.04.34-.21-.75-.48-1.56-.69-2.31Z"/>
    <path class="cls-2" d="M34.6,33.37c.4.25.62.23.95.18,2.43,4.72,4.56,9.49,6.99,14.2-.37.14-.55.26-.81.45-2.48-4.94-4.65-9.9-7.13-14.84Z"/>
    <path class="cls-2" d="M41.86,48.6c.29-.29.69-.43,1.21-.49.47.74.91,1.8,1.37,2.55-.28.43-.61.5-1.27.7-.37-.86-.94-1.9-1.31-2.76Z"/>
    <polygon class="cls-3" points="34.75 33.1 43.74 51.33 44.08 51.21 35.04 33.02 34.75 33.1"/>
    <path class="cls-3" d="M72.49,63.9c3.84-.29,7.75-.37,11.56-.94-.08-.24-.06-.63-.03-.86-3.85-.09-7.7-.17-11.54-.26.04.62-.01,1.22-.11,1.81,2.56-.17,5.12-.34,7.68-.52-2.52.26-5.04.51-7.56.77Z"/>
    <path class="cls-3" d="M104.97,56.36c3.34,1.49,3.34,3.59,3.46,4.62.29,2.47-.08,3.9-1.62,4.89,1.63-2.03,1.36-7.94-1.84-9.51Z"/>
    <polygon class="cls-2" points="73.48 56.74 85.54 57.01 85.33 57.21 73.32 56.92 73.48 56.74"/>
    <path class="cls-3" d="M78.48,54.86c.03.58-.02,1.15.35,1.73.28,0,.56,0,.85.02l.03-1.71c-.41-.01-.82-.02-1.23-.04h0ZM79.88,56.61h.27s.03-1.7.03-1.7h-.27s-.03,1.7-.03,1.7h0ZM80.66,56.63c.82.02,1.65.05,2.49.07l.03-1.73c-.83-.01-1.66-.03-2.49-.05l-.03,1.71h0ZM83.65,56.72c1.04.03,2.06.06,3.02.07.77-.71,1.29-1.16,2.2-1.69-1.69-.06-3.44-.09-5.19-.12l-.03,1.74Z"/>
    <path class="cls-3" d="M77.31,54.5c4.05.12,8.09.28,12.14.11-.19.2-.37.32-.56.51-3.78-.03-7.51-.16-11.29-.19-.15-.21-.28-.23-.29-.44Z"/>
    <polygon class="cls-2" points="73.69 55.27 73.79 54.18 76.93 54.29 73.96 54.33 73.69 55.27"/>
    <path class="cls-2" d="M71.78,66.37c4.22-.35,8.42-.55,12.24-1.42.02-.11,0-.17.08-.38-3.43,1.11-8.1,1.15-11.94,1.52-.1.06-.2.12-.38.27Z"/>
    <path class="cls-2" d="M92.63,67.86c-.59-3.14-.69-6.18.32-8.11.89-1.71,2.68-2.42,5.57-2.97-1.88.09-3.02.57-4.37,1.14-1.8-.1-3.64-.1-5.43-.2,1.46.2,3.08.51,4.54.71-.52.59-1.22,1.63-1.36,2.49-1.63.01-4.2-.16-5.83-.38.35-1.31,1.54-3.56,4.82-4.39-3.76.52-5.32,3.63-5.53,5.21-.18,1.34-.49,3.32.61,6.34-.58-2.27-.72-3.57-.3-5.72,1.22-.05,4.84.2,6.07.15.24,2.27.36,3.68.91,5.73Z"/>
    <polygon class="cls-2" points="95.45 65.91 95.42 61.54 105.63 60.21 96.02 61.99 95.45 65.91"/>
  </g>
</svg>