<?xml version="1.0" encoding="UTF-8"?>
<svg id="Layer_1" data-name="Layer 1" xmlns="http://www.w3.org/2000/svg" xmlns:xlink="http://www.w3.org/1999/xlink" viewBox="0 0 144.57 124.61">
  <defs>
    <style>
      .cls-1 {
        fill: #c2c3c6;
      }

      .cls-1, .cls-2, .cls-3, .cls-4, .cls-5 {
        fill-rule: evenodd;
      }

      .cls-6, .cls-2 {
        fill: #fff;
      }

      .cls-7 {
        fill: none;
      }

      .cls-3, .cls-8 {
        fill: #17151a;
      }

      .cls-4 {
        fill: #e0dede;
      }

      .cls-9 {
        fill: #d1d3d4;
      }

      .cls-5, .cls-10 {
        fill: #faa427;
      }

      .cls-11 {
        clip-path: url(#clippath);
      }
    </style>
    <clipPath id="clippath">
      <path class="cls-7" d="M50.21,73.47l-5.83,23.45h-8.15l3.93-15.83-7.18,15.83h-5.78l.43-15.47-3.86,15.47h-8.15l5.83-23.45h12.07c0,1.41-.04,3.07-.13,4.99l-.16,5.96,4.87-10.95h12.13ZM55,92.14l-1.19,4.78h-6.76l1.19-4.78h6.76ZM62.33,73.47h9.39c2.54,0,4.46.13,5.76.39,1.3.26,2.23.64,2.8,1.13.56.49.88,1.09.95,1.79.07.7-.08,1.78-.44,3.25l-.51,2.04c-.37,1.5-.88,2.59-1.52,3.27-.64.69-1.64,1.21-3,1.58-1.35.37-3.05.55-5.09.55h-2.5l-2.35,9.44h-9.33l5.83-23.45ZM70.65,77.48l-1.48,5.97c.26,0,.49.01.68.01.86,0,1.49-.14,1.89-.41.4-.28.71-.85.93-1.72l.48-1.93c.2-.8.14-1.32-.19-1.56-.32-.24-1.09-.36-2.3-.36ZM80.39,92.14l-1.19,4.78h-6.76l1.19-4.78h6.76ZM106.5,73.47l-1.17,4.69h-5.54l-4.67,18.76h-9.33l4.67-18.76h-5.52l1.17-4.69h20.38ZM105.9,92.14l-1.19,4.78h-6.76l1.19-4.78h6.76ZM113.23,73.47h6.6c4.4,0,7.35.11,8.85.33,1.5.22,2.63.79,3.39,1.7.75.91.88,2.37.39,4.37-.45,1.83-1.11,3.05-1.96,3.68-.85.63-2.31,1-4.38,1.13,1.77.3,2.91.7,3.42,1.2.51.5.79.96.84,1.38.05.42-.16,1.58-.63,3.47l-1.54,6.18h-8.66l1.94-7.79c.31-1.26.35-2.03.13-2.33-.23-.3-.98-.45-2.27-.45l-2.63,10.57h-9.33l5.83-23.45ZM121.56,77.48l-1.3,5.21c1.05,0,1.81-.09,2.27-.28s.83-.8,1.09-1.83l.32-1.29c.18-.74.1-1.23-.25-1.46s-1.06-.35-2.14-.35Z"/>
    </clipPath>
  </defs>
  <g>
    <path class="cls-2" d="M129.52,51.67c-.11-3.11-.83-6.04-2.15-8.7-2-4.05-5.24-7.32-9.65-9.73-4.2-2.29-9.28-3.7-15.1-4.19-5.77-.48-11.99-.03-18.47,1.35-6.7,1.42-13.39,3.77-19.9,6.98-7.13,3.52-13.55,7.82-19.08,12.79-5.36,4.82-9.58,9.98-12.55,15.35-.02.04-.04.07-.05.11,0,0,0,0,0,0-.15.28-.61,1.29-1.13,2.48h93.66c.66-1.26,2.6-5.5,3.05-7.08,1.02-3.23,1.47-6.38,1.37-9.38Z"/>
    <path class="cls-5" d="M70.46,40.65c26.67-8.48,52.03-3.6,56.64,10.9.93,2.94.95,6.05.15,9.2,1.94-6.18,1.83-12.18-.73-17.37-7.81-15.84-35.51-18.15-61.86-5.15-14.43,7.12-25.47,17.35-31.21,27.75,6.19-10.11,19.76-19.85,37-25.33Z"/>
  </g>
  <path class="cls-2" d="M67.98,71.5l-.13-.03c-.06-.01-.12-.03-.18-.05-2.49-.21-5.02-.39-7.48-.57-2.61-.19-5.32-.39-7.98-.61h-.15s-.14-.05-.14-.05c-1.11-.31-2.26-1.63-3.98-3.95-.11-.01-.23-.02-.34-.02-.08,0-.15,0-.22,0l-.52.04-.44-.27c-.38-.23-.85-.57-1.17-1.14-.61-1.1-.19-2.26.14-2.94-.05-.69-.03-1.54.3-2.41l-3.37-6.1c-.46-.13-.98-.41-1.34-1.06l-.05-.09-.04-.1c-.15-.37-.31-.74-.49-1.13-.18-.4-.37-.82-.54-1.25l-.02-.05s-.02-.05-.02-.07l-.43-.05-.39-.42c-.1-.11-.19-.23-.27-.35-.21-.32-.34-.69-.42-1.14-.03-.15-.04-.3-.05-.44,0-.04,0-.1-.01-.15-.68-1.17-1.34-2.37-1.98-3.53-.57-1.03-1.16-2.1-1.75-3.14-.23-.11-.44-.25-.63-.42-.25-.24-.42-.5-.55-.74h-.09s-.4-.6-.4-.6c-.06-.06-.11-.13-.16-.21-.18-.26-.29-.51-.38-.71-.04-.1-.08-.18-.12-.25-.05-.1-.09-.2-.13-.3l-.3-.58c-.09-.09-.18-.21-.25-.34-.07-.13-.12-.25-.15-.37-.16-.14-.27-.3-.35-.45-.05-.08-.09-.17-.14-.25-.04-.08-.08-.16-.1-.25l-.77-1.46.37-.11c-.42-1.03-.82-2.09-1.2-3.24-.21-.63-.41-1.26-.6-1.88-.09-.3-.19-.59-.28-.88-.36-1.14-.71-2.16-1.04-3.1-.14-.23-.31-.48-.48-.73-.2-.28-.4-.58-.59-.9-.63-1.05-.94-2.04-.99-3.11-.05-1.07-.15-2.17-.24-3.24-.03-.4-.07-.79-.1-1.18h0c-.13-1.65-.27-3.33-.21-5,.03-.83.11-2.61,1.15-3.55.06-.55.13-1.13.24-1.7.16-.82.45-1.85,1.27-2.54.42-.35.93-.53,1.55-.53.16,0,.3.01.42.02.08,0,.16.01.22.01,0,0,0,0,.01,0,.08-.02.26-.08.37-.12.12-.04.24-.08.34-.11.31-.09.73-.2,1.17-.2.33,0,.63.06.91.17,1.02.42,1.55,1.25,1.83,1.91,2.03.48,4.06,1.03,6.02,1.56,1.96.53,3.99,1.08,6,1.56.38-.23.81-.35,1.27-.35.54,0,1.03.16,1.45.31.06.02.13.04.19.06.08.02.15.05.22.07.51.16,1.08.34,1.64.75,1.8.45,3.6.94,5.35,1.42,1.76.48,3.57.97,5.37,1.42.4-.03.79-.05,1.16-.05.99,0,1.87.11,2.64.32.54-.41,1.18-.75,1.92-.75.14,0,.28.01.42.04.86.16,1.54.77,2.03,1.81.31.67.53,1.43.71,2.18,1.8.93,3.28,2.08,4.51,3.5,1.38,1.6,2.33,3.39,2.99,4.78.68,1.42,1.3,2.89,1.9,4.31.24.57.48,1.13.72,1.69.18.41.37.82.56,1.22l.23.41c0-.25,0-.48-.02-.67-.23-1.15.41-2.15,1.58-2.44l.15-.04h.16c.39-.03.78-.04,1.15-.04.36,0,.7,0,1.03-.03l.27-.02.26.07c.54.15.88.48,1.08.69.26.06.56.16.86.33.3-.02.6-.02.89-.03.05,0,.1,0,.15,0,.28-.98.96-1.31,1.39-1.42l.15-.04h.15c.16-.02.32-.03.47-.05.07,0,.14-.02.22-.03.34-.04.72-.09,1.11-.09.86,0,1.52.25,2,.74l.02.02.04.05s.08.07.35.18c.08.03.15.06.23.1.4.15.73.41.95.75.14.05.28.1.43.15.25.09.49.17.74.26.13-.02.27-.03.41-.03.34,0,.68.06,1,.18.89.33,1.58,1.09,1.92,2.14l.03.09.02.09c.25,1.14.33,2.3.37,3.39v.03s0,.06,0,.06c0,.33,0,.67,0,1,.25.06.51.13.77.19.62.15,1.26.31,1.9.49,1.39.41,2.52,1.58,2.87,3l.08.31-.05.32c-.04.25-.02.59,0,.95,0,.14.02.28.03.42.94.62,1.82,1.51,2.34,2.39.67,1.12.86,2.33.58,3.49-.04.62-.01,1.26.02,1.95.03.63.06,1.28.03,1.94.07.14.16.33.22.57l.02.07.02.1c.09.6.19,2.12-.69,3.14-.18.21-.4.39-.64.52v.4c.3.19.62.4.92.67.94.87,1.22,2.04,1.36,2.95.14.92.21,1.95.21,3.06.01,3.62-.67,5.4-2.22,5.79l-.07.02-.1.02c-2.13.29-4.29.69-6.38,1.06-2.98.54-6.05,1.1-9.15,1.4-.88.08-1.72.13-2.56.13h0c-1.52,0-3.05-.14-4.69-.42l-.61-.11-.38-.49c-.21-.27-.47-.69-.67-1.16-.28-.21-.49-.51-.6-.86l-.02-.06-.02-.07c-.04-.17-.06-.33-.06-.47-.82.19-1.62.32-2.29.42-1.5.22-3.01.36-4.31.47-.45.04-.9.08-1.36.12-1.08.09-2.18.18-3.27.3-.8,1.73-2.07,2.91-3.58,3.29l-.27.07-.44-.04ZM51.87,37.99c1.53,4.48,3.09,9.09,4.66,13.66l.76-2.88.27-1.02h2.87s1.13-.02,1.13-.02l.03.14.2-.03c.39-.06.72-.09,1.03-.09.33,0,.66.03.98.1h.06c.08-.22.21-.45.39-.66.14-.16.3-.28.45-.38.01-.04.03-.08.04-.13,0-.28.04-.63.17-.98.29-.75.93-1.21,1.74-1.25.23-.03.46-.05.67-.05.16-1.32.62-2.48,1.34-3.35-.17-.59-.93-3.2-1.13-3.91-.15-.15-.25-.31-.32-.45l-.06-.12-.04-.12c-.12-.35-.26-.7-.39-1.04-.13-.35-.27-.72-.4-1.08l-.02-.06-.03-.1c-.13-.54-.04-1.07.26-1.49-.13-.39-.25-.79-.38-1.18-.16-.51-.33-1.02-.49-1.54-2.58-2.21-7.98-3.43-9.8-3.84-.96-.22-1.92-.41-2.79-.59-.12.72-.29,1.48-.54,2.35-.46,1.61-1.3,3.36-2.39,5.01.58,1.69,1.15,3.38,1.73,5.07ZM38.96,9.58c.14.14.29.28.43.42.35-.05.69-.06,1.01-.06-.23-.06-1.2-.29-1.45-.36Z"/>
  <g>
    <path class="cls-6" d="M119.79,123.2c-.31,0-.59-.16-.76-.42-.17-.26-.19-.58-.06-.86l3.86-8.49s.03-.05.04-.08l.83-1.45h-2.37l-1.88,3.25s-.03.04-.04.07l-5.31,7.59c-.17.24-.45.39-.74.39h-6.62c-.31,0-.59-.16-.76-.42-.17-.26-.19-.58-.06-.86l3.86-8.49s.03-.05.04-.08l.83-1.45h-2.37l-1.88,3.25s-.03.04-.04.07l-5.31,7.59c-.17.24-.45.39-.74.39h-6.62c-.31,0-.59-.16-.76-.42-.17-.26-.19-.58-.06-.86l3.86-8.49s.03-.05.04-.08l.83-1.45h-2.37l-1.88,3.25s-.03.04-.04.07l-5.31,7.59c-.17.24-.45.39-.74.39h-6.62c-.31,0-.59-.16-.76-.42-.17-.26-.19-.58-.06-.86l3.86-8.49s.03-.05.04-.08l.83-1.45h-2.37l-1.88,3.25s-.03.04-.04.07l-5.31,7.59c-.17.24-.45.39-.74.39h-6.62c-.31,0-.59-.16-.76-.42-.17-.26-.19-.58-.06-.86l3.86-8.49s.03-.05.04-.08l.83-1.45h-2.37l-1.88,3.25s-.03.04-.04.07l-5.31,7.59c-.17.24-.45.39-.74.39h-6.62c-.31,0-.59-.16-.76-.42-.17-.26-.19-.58-.06-.86l3.86-8.49s.03-.05.04-.08l.83-1.45h-2.37l-1.88,3.25s-.03.04-.04.07l-5.31,7.59c-.17.24-.45.39-.74.39h-6.62c-.31,0-.59-.16-.76-.42-.17-.26-.19-.58-.06-.86l3.86-8.49s.03-.05.04-.08l.83-1.45h-2.37l-1.88,3.25s-.03.04-.04.07l-5.31,7.59c-.17.24-.45.39-.74.39h-6.62c-.31,0-.59-.16-.76-.42-.17-.26-.19-.58-.06-.86l3.86-8.49s.03-.05.04-.08l.83-1.45h-2.37l-1.88,3.25s-.03.04-.04.07l-5.31,7.59c-.17.24-.45.39-.74.39h-6.62c-.31,0-.59-.16-.76-.42-.17-.26-.19-.58-.06-.86l3.86-8.49s.03-.05.04-.08l.83-1.45h-2.37l-1.88,3.25s-.03.04-.04.07l-5.31,7.59c-.17.24-.45.39-.74.39h-6.62c-.31,0-.59-.16-.76-.42-.17-.26-.19-.58-.06-.86l3.86-8.49s.03-.05.04-.08l.83-1.45h-2.37l-1.88,3.25s-.03.04-.04.07l-5.31,7.59c-.17.24-.45.39-.74.39H2.32c-.31,0-.59-.16-.76-.42-.17-.26-.19-.58-.06-.86l3.86-8.49s.03-.05.04-.08l2.16-3.74v-10.35c0-.07,0-.14.03-.21l7.95-32.62c.1-.41.46-.69.88-.69h125.83c.5,0,.9.41.9.9v30.53c0,.17-.05.33-.13.47l-8,13.17-2.52,4.36s-.03.04-.04.07l-5.31,7.59c-.17.24-.45.39-.74.39h-6.62Z"/>
    <polygon class="cls-10" points="142.24 66.63 142.24 66.63 142.24 66.63 142.24 66.63 142.24 66.63 16.42 66.63 8.47 99.26 8.47 109.85 6.18 113.81 2.32 122.29 8.95 122.29 14.25 114.71 16.39 111 20.85 111 19.24 113.81 15.37 122.29 22 122.29 27.3 114.71 29.44 111 33.91 111 32.29 113.81 28.43 122.29 35.05 122.29 40.36 114.71 42.49 111 46.96 111 45.34 113.81 41.48 122.29 48.1 122.29 53.41 114.71 55.55 111 60.01 111 58.39 113.81 54.53 122.29 61.15 122.29 66.46 114.71 68.6 111 73.06 111 71.44 113.81 67.58 122.29 74.2 122.29 79.51 114.71 81.65 111 86.11 111 84.5 113.81 80.63 122.29 87.26 122.29 92.56 114.71 94.7 111 99.17 111 97.55 113.81 93.69 122.29 100.31 122.29 105.62 114.71 107.75 111 112.22 111 110.6 113.81 106.74 122.29 113.36 122.29 118.67 114.71 120.81 111 125.27 111 123.65 113.81 119.79 122.29 126.41 122.29 131.72 114.71 134.24 110.34 134.24 110.34 142.24 97.16 142.24 66.63"/>
    <polygon class="cls-8" points="17.13 67.54 9.37 99.37 9.37 110.1 9.37 110.1 6.99 114.22 3.73 121.39 8.47 121.39 13.49 114.22 15.87 110.1 22.42 110.1 20.04 114.22 16.78 121.39 21.53 121.39 26.54 114.22 28.92 110.1 35.47 110.1 33.09 114.22 29.83 121.39 34.58 121.39 39.59 114.22 41.97 110.1 48.53 110.1 46.15 114.22 42.88 121.39 47.63 121.39 52.64 114.22 55.02 110.1 61.58 110.1 59.2 114.22 55.94 121.39 60.68 121.39 65.7 114.22 68.08 110.1 74.63 110.1 72.25 114.22 68.99 121.39 73.73 121.39 78.75 114.22 81.13 110.1 87.68 110.1 85.3 114.22 82.04 121.39 86.79 121.39 91.8 114.22 94.18 110.1 100.73 110.1 98.35 114.22 95.09 121.39 99.84 121.39 104.85 114.22 107.23 110.1 113.79 110.1 111.41 114.22 108.14 121.39 112.89 121.39 117.9 114.22 120.28 110.1 126.84 110.1 124.46 114.22 121.2 121.39 125.94 121.39 130.96 114.22 133.34 110.1 133.34 110.1 133.34 99.37 141.09 67.54 17.13 67.54"/>
  </g>
  <path class="cls-6" d="M20.35,101.78l-.04,5.24h-1.66l.02-3.53-.69,3.53h-1.18l-.67-3.45-.03,3.45h-1.66l.04-5.24h2.45c.07.31.14.69.22,1.11l.26,1.33.45-2.44h2.47ZM25.42,104.85c0,.53-.02.9-.06,1.12-.04.22-.15.42-.33.6-.18.18-.43.32-.74.42-.31.1-.67.15-1.08.15s-.74-.05-1.05-.14c-.31-.09-.56-.23-.75-.41-.19-.18-.3-.38-.33-.6-.03-.22-.05-.59-.05-1.13v-.9c.01-.53.03-.9.07-1.12.04-.22.15-.42.33-.6.18-.18.43-.32.74-.42.31-.1.67-.15,1.08-.15.39,0,.74.05,1.05.14.31.09.56.23.75.41.19.18.3.38.33.6.03.22.05.59.05,1.13v.9ZM23.54,103.13c0-.24-.02-.4-.05-.47-.04-.07-.11-.1-.23-.1-.1,0-.18.03-.23.08-.05.05-.08.22-.08.49l-.02,2.44c0,.3.01.49.05.56.03.07.11.11.24.11s.21-.04.25-.12c.04-.08.06-.28.06-.59l.02-2.41ZM26.15,101.78h1.89c.6,0,1.05.03,1.36.1s.55.2.74.41c.19.2.28.53.28.98,0,.31-.07.52-.2.64-.13.12-.4.21-.79.28.44.07.73.19.89.35.15.16.23.42.23.76v.49c0,.35-.06.62-.18.79-.11.17-.29.29-.54.35-.25.06-.75.09-1.51.09h-2.19l.04-5.24ZM28.03,104.66v1.46c.26,0,.43-.04.5-.09s.11-.19.11-.4v-.49c0-.22-.03-.36-.09-.41-.07-.05-.24-.07-.52-.08ZM28.04,102.68v1.16c.07,0,.14,0,.18,0,.19,0,.3-.03.36-.1.05-.07.08-.25.08-.56,0-.16-.02-.28-.06-.34-.04-.07-.1-.11-.16-.12-.07-.02-.2-.03-.39-.03ZM33.14,101.78l-.04,5.24h-1.9l.04-5.24h1.9ZM35.8,101.78l-.03,4.19h1.15v1.05h-3.06l.04-5.24h1.9ZM37.41,101.78h3.16v1.05h-1.27v.99s1.18,0,1.18,0v1h-1.19v1.15s1.38,0,1.38,0v1.05h-3.3l.04-5.24ZM42.87,101.78h1.91c.52,0,.91.03,1.19.09.28.06.49.14.62.25s.23.24.28.4c.05.16.07.4.07.73v.46c0,.33-.06.58-.15.73-.1.15-.27.27-.53.35-.26.08-.59.12-1.01.12h-.51l-.02,2.11h-1.9l.04-5.24ZM44.76,102.68v1.33s.09,0,.13,0c.17,0,.3-.03.36-.09.07-.06.1-.19.1-.38v-.43c0-.18-.03-.3-.11-.35-.08-.05-.24-.08-.49-.08ZM49.4,101.78l-.03,4.19h1.15v1.05h-3.06l.04-5.24h1.9ZM54.52,101.78l1.05,5.24h-1.94l-.1-.94h-.68l-.12.94h-1.96l1.01-5.24h2.74ZM53.49,105.15c-.09-.59-.18-1.33-.27-2.2-.2,1-.33,1.74-.38,2.2h.65ZM60.16,101.78l-.04,5.24h-1.66l-.97-2.38-.02,2.38h-1.59l.04-5.24h1.59l1.05,2.36.02-2.36h1.59ZM64.74,101.78v1.05h-1.13l-.03,4.19h-1.9l.03-4.19h-1.12v-1.05h4.15ZM71.59,105.03v.88s-.52.23-.52.23l.63.87h-1.68l-.22-.29c-.57.27-1.1.4-1.61.4s-.93-.13-1.22-.38c-.28-.25-.42-.56-.42-.91,0-.28.09-.51.26-.67.17-.16.42-.29.76-.39-.48-.25-.72-.58-.71-1.01,0-.36.18-.66.52-.88.34-.22.82-.33,1.42-.33.54,0,.97.11,1.27.33.31.22.46.49.46.83,0,.35-.19.67-.57.94l.64.83,1-.46ZM69.18,106.14l-.58-.71c-.23.15-.34.31-.34.48,0,.12.03.22.1.28s.17.09.31.09c.15,0,.32-.05.51-.14ZM68.78,104.11c.21-.19.31-.38.31-.55,0-.08-.03-.14-.09-.21-.06-.06-.14-.09-.25-.09-.1,0-.17.02-.23.07-.05.05-.08.12-.08.22,0,.2.11.39.33.56ZM76.08,101.78v1.05h-1.13l-.03,4.19h-1.9l.03-4.19h-1.12v-1.05h4.15ZM76.52,101.78h1.34c.89,0,1.5.02,1.82.07.32.05.57.18.77.38.2.2.3.53.29.97,0,.41-.08.68-.22.82-.14.14-.42.22-.84.25.37.07.63.16.75.27.13.11.21.22.24.31.03.09.04.35.04.77v1.38h-1.77v-1.74c.01-.28-.01-.45-.08-.52-.06-.07-.22-.1-.48-.1l-.02,2.36h-1.9l.04-5.24ZM78.41,102.68v1.16c.2,0,.35-.02.44-.06.09-.04.13-.18.13-.41v-.29c0-.17-.04-.27-.12-.33s-.23-.08-.45-.08ZM85.79,101.78l-.03,3.5c0,.4-.02.68-.06.84-.04.16-.14.33-.32.49-.18.17-.41.3-.7.38-.29.09-.63.13-1.03.13-.44,0-.82-.05-1.15-.16-.33-.1-.58-.24-.74-.4s-.26-.34-.29-.53-.04-.57-.04-1.16l.02-3.1h1.9l-.03,3.93c0,.23.01.37.05.44.03.06.1.1.21.1.12,0,.2-.04.23-.11.04-.07.05-.24.06-.5l.03-3.86h1.9ZM90.94,104.06h-1.9v-.91c0-.26-.01-.43-.05-.5-.04-.07-.13-.1-.27-.1-.16,0-.26.04-.3.12-.04.08-.06.25-.07.52l-.02,2.43c0,.25.02.42.06.5s.14.12.28.12.23-.04.28-.12c.04-.08.07-.26.07-.55v-.66h1.9v.2c0,.54-.06.93-.17,1.15-.11.23-.35.43-.71.6-.37.17-.82.26-1.35.26s-1.01-.07-1.37-.22c-.36-.14-.6-.34-.71-.6s-.17-.64-.17-1.15v-1.53c.01-.38.03-.66.07-.85.04-.19.15-.37.33-.54.18-.17.43-.31.75-.41.32-.1.68-.15,1.09-.15.56,0,1.02.08,1.38.23.36.16.6.35.71.58.11.23.17.59.16,1.08v.5ZM96.16,101.78l-1.1,2.36,1.17,2.87h-1.96l-.75-2.24-.02,2.24h-1.9l.04-5.24h1.9v2.03s.84-2.03.84-2.03h1.78ZM98.21,101.78h1.34c.89,0,1.5.02,1.82.07.32.05.57.18.77.38.2.2.3.53.29.97,0,.41-.08.68-.22.82-.14.14-.42.22-.84.25.37.07.63.16.75.27.13.11.21.22.24.31.03.09.04.35.04.77v1.38h-1.77v-1.74c.01-.28-.01-.45-.08-.52-.06-.07-.22-.1-.48-.1l-.02,2.36h-1.9l.04-5.24ZM100.1,102.68v1.16c.2,0,.35-.02.44-.06.09-.04.13-.18.13-.41v-.29c0-.17-.04-.27-.12-.33s-.23-.08-.45-.08ZM103.18,101.78h3.16v1.05h-1.27v.99s1.18,0,1.18,0v1h-1.19v1.15s1.38,0,1.38,0v1.05h-3.3l.04-5.24ZM107.01,101.78h1.91c.52,0,.91.03,1.19.09.28.06.49.14.62.25.14.11.23.24.28.4.05.16.07.4.07.73v.46c0,.33-.06.58-.15.73-.1.15-.27.27-.53.35-.26.08-.59.12-1.01.12h-.51l-.02,2.11h-1.9l.04-5.24ZM108.9,102.68v1.33s.09,0,.13,0c.17,0,.3-.03.36-.09.07-.06.1-.19.1-.38v-.43c0-.18-.03-.3-.11-.35-.08-.05-.24-.08-.49-.08ZM114.69,101.78l1.05,5.24h-1.94l-.1-.94h-.68l-.12.94h-1.96l1.01-5.24h2.74ZM113.66,105.15c-.09-.59-.18-1.33-.27-2.2-.2,1-.33,1.74-.38,2.2h.65ZM117.99,101.78l-.04,5.24h-1.9l.04-5.24h1.9ZM118.76,101.78h1.34c.89,0,1.5.02,1.82.07.32.05.57.18.77.38s.3.53.29.97c0,.41-.08.68-.22.82-.14.14-.42.22-.84.25.37.07.63.16.75.27.13.11.21.22.24.31.03.09.04.35.04.77v1.38h-1.77v-1.74c.01-.28-.01-.45-.08-.52-.06-.07-.22-.1-.48-.1l-.02,2.36h-1.9l.04-5.24ZM120.65,102.68v1.16c.2,0,.35-.02.44-.06.09-.04.13-.18.13-.41v-.29c0-.17-.04-.27-.12-.33s-.23-.08-.45-.08ZM127.73,103.37h-1.76v-.39c0-.18-.02-.3-.06-.35s-.12-.07-.22-.07c-.11,0-.2.03-.26.1-.06.07-.09.17-.09.3,0,.17.03.31.1.39.06.09.24.2.53.32.84.36,1.37.65,1.59.89.22.23.32.6.32,1.12,0,.37-.07.65-.19.82-.12.18-.36.32-.71.44-.35.12-.76.18-1.22.18-.51,0-.94-.07-1.3-.21-.36-.14-.59-.31-.7-.53-.11-.21-.16-.52-.16-.91v-.34h1.76v.64c0,.2.02.32.07.38s.14.08.26.08.22-.04.28-.11c.06-.07.09-.18.09-.32,0-.31-.05-.51-.17-.6-.12-.09-.41-.25-.88-.48-.47-.22-.78-.39-.93-.49-.15-.1-.28-.24-.38-.42-.1-.18-.15-.41-.15-.69,0-.4.08-.69.22-.88.14-.19.38-.33.69-.43.32-.1.7-.16,1.15-.16.49,0,.91.06,1.26.17.35.11.57.26.69.43.11.17.17.47.16.88v.21Z"/>
  <g class="cls-11">
    <rect class="cls-9" x="13.2" y="71.54" width="124.43" height="27.83"/>
    <path class="cls-6" d="M51.25,74.51l-5.83,23.45h-8.15l3.93-15.83-7.18,15.83h-5.78l.43-15.47-3.86,15.47h-8.15l5.83-23.45h12.07c0,1.41-.04,3.07-.13,4.99l-.16,5.96,4.87-10.95h12.13ZM56.04,93.18l-1.19,4.78h-6.76l1.19-4.78h6.76ZM63.36,74.51h9.39c2.54,0,4.46.13,5.76.39,1.3.26,2.23.64,2.8,1.13.56.49.88,1.09.95,1.79.07.7-.08,1.78-.44,3.25l-.51,2.04c-.37,1.5-.88,2.59-1.52,3.27-.64.69-1.64,1.21-3,1.58-1.35.37-3.05.55-5.09.55h-2.5l-2.35,9.44h-9.33l5.83-23.45ZM71.69,78.52l-1.48,5.97c.26,0,.49.01.68.01.86,0,1.49-.14,1.89-.41.4-.28.71-.85.93-1.72l.48-1.93c.2-.8.14-1.32-.19-1.56-.32-.24-1.09-.36-2.3-.36ZM81.42,93.18l-1.19,4.78h-6.76l1.19-4.78h6.76ZM107.53,74.51l-1.17,4.69h-5.54l-4.67,18.76h-9.33l4.67-18.76h-5.52l1.17-4.69h20.38ZM106.94,93.18l-1.19,4.78h-6.76l1.19-4.78h6.76ZM114.26,74.51h6.6c4.4,0,7.35.11,8.85.33,1.5.22,2.63.79,3.39,1.7.75.91.88,2.37.39,4.37-.45,1.83-1.11,3.05-1.96,3.68-.85.63-2.31,1-4.38,1.13,1.77.3,2.91.7,3.42,1.2.51.5.79.96.84,1.38.05.42-.16,1.58-.63,3.47l-1.54,6.18h-8.66l1.94-7.79c.31-1.26.35-2.03.13-2.33-.23-.3-.98-.45-2.27-.45l-2.63,10.57h-9.33l5.83-23.45ZM122.59,78.52l-1.3,5.21c1.05,0,1.81-.09,2.27-.28s.83-.8,1.09-1.83l.32-1.29c.18-.74.1-1.23-.25-1.46s-1.06-.35-2.14-.35Z"/>
  </g>
</svg>